<svg width="34" height="34" viewBox="0 0 34 34" fill="none" xmlns="http://www.w3.org/2000/svg">
<circle cx="17" cy="17" r="16.5" fill="#F5F5F5" stroke="#E6E6E6"/>
<path d="M20.003 24.0046C19.8713 24.0054 19.7407 23.9802 19.6187 23.9303C19.4968 23.8805 19.3859 23.8071 19.2923 23.7143L13.2862 17.7082C13.0998 17.5207 12.9951 17.267 12.9951 17.0025C12.9951 16.7381 13.0998 16.4844 13.2862 16.2968L19.2923 10.2907C19.4838 10.1267 19.7301 10.041 19.9821 10.0507C20.234 10.0605 20.473 10.1649 20.6513 10.3432C20.8295 10.5215 20.934 10.7604 20.9437 11.0124C20.9534 11.2643 20.8677 11.5106 20.7038 11.7021L15.4084 16.9975L20.7038 22.2929C20.8443 22.4323 20.9404 22.6103 20.9798 22.8043C21.0192 22.9983 21.0002 23.1996 20.9252 23.3829C20.8502 23.5661 20.7226 23.7229 20.5584 23.8336C20.3943 23.9443 20.201 24.0038 20.003 24.0046Z" fill="#626262"/>
</svg>
