<svg width="26" height="26" viewBox="0 0 26 26" fill="none" xmlns="http://www.w3.org/2000/svg">
<circle cx="13" cy="13" r="13" fill="url(#paint0_linear_77_351)"/>
<path d="M13 6C12.6906 6 12.3938 6.12292 12.175 6.34171C11.9562 6.5605 11.8333 6.85725 11.8333 7.16667V11.8333H7.16667C6.85725 11.8333 6.5605 11.9562 6.34171 12.175C6.12292 12.3938 6 12.6906 6 13C6 13.3094 6.12292 13.6062 6.34171 13.825C6.5605 14.0437 6.85725 14.1667 7.16667 14.1667H11.8333V18.8333C11.8333 19.1428 11.9562 19.4395 12.175 19.6583C12.3938 19.8771 12.6906 20 13 20C13.3094 20 13.6062 19.8771 13.825 19.6583C14.0437 19.4395 14.1667 19.1428 14.1667 18.8333V14.1667H18.8333C19.1428 14.1667 19.4395 14.0437 19.6583 13.825C19.8771 13.6062 20 13.3094 20 13C20 12.6906 19.8771 12.3938 19.6583 12.175C19.4395 11.9562 19.1428 11.8333 18.8333 11.8333H14.1667V7.16667C14.1667 6.85725 14.0437 6.5605 13.825 6.34171C13.6062 6.12292 13.3094 6 13 6Z" fill="white"/>
<defs>
<linearGradient id="paint0_linear_77_351" x1="6" y1="1.5" x2="22" y2="27" gradientUnits="userSpaceOnUse">
<stop stop-color="#2572E4"/>
<stop offset="1" stop-color="#DB2B9F"/>
</linearGradient>
</defs>
</svg>
