<svg id="calendar" xmlns="http://www.w3.org/2000/svg" width="25" height="25" viewBox="0 0 25 25">
  <path id="Path_56" data-name="Path 56" d="M26.357,4.036H23.679V2.25H21.893V4.036H7.607V2.25H5.821V4.036H3.143l-.893.893V26.357l.893.893H26.357l.893-.893V4.929Zm-.893,21.429H4.036V9.393H25.464Zm0-17.857H4.036V5.821H25.464ZM7.607,14.75H5.821v1.786H7.607ZM5.821,18.321H7.607v1.786H5.821Zm1.786,3.571H5.821v1.786H7.607Zm3.571-7.143h1.786v1.786H11.179Zm1.786,3.571H11.179v1.786h1.786Zm-1.786,3.571h1.786v1.786H11.179Zm1.786-10.714H11.179v1.786h1.786Zm3.571,3.571h1.786v1.786H16.536Zm1.786,3.571H16.536v1.786h1.786Zm-1.786,3.571h1.786v1.786H16.536Zm1.786-10.714H16.536v1.786h1.786Zm3.571,3.571h1.786v1.786H21.893Zm1.786,3.571H21.893v1.786h1.786Zm-1.786-7.143h1.786v1.786H21.893Z" transform="translate(-2.25 -2.25)" fill="#4a7d8f"/>
</svg>
