<svg width="34" height="34" viewBox="0 0 34 34" fill="none" xmlns="http://www.w3.org/2000/svg">
<circle cx="17" cy="17" r="16.5" fill="#F5F5F5" stroke="#E6E6E6"/>
<path d="M22.8173 13.5312C23.1481 13.5312 23.3774 13.1968 23.2534 12.8902C22.813 11.8014 21.7448 11.0312 20.5 11.0312H19.9245C19.7099 9.89772 18.7161 9 17.5 9H16.5C15.2846 9 14.2901 9.89713 14.0754 11.0312H13.5C12.2552 11.0312 11.187 11.8014 10.7466 12.8902C10.6225 13.1968 10.8519 13.5312 11.1827 13.5312H22.8173ZM16.5 9.9375H17.5C18.1843 9.9375 18.7653 10.3979 18.9608 11.0312H15.0391C15.2347 10.3979 15.8156 9.9375 16.5 9.9375Z" fill="#FF6464"/>
<path d="M12.4704 23.6936C12.5226 24.4262 13.1387 25 13.8731 25H20.1269C20.8613 25 21.4774 24.4262 21.5296 23.6936L22.1865 14.4688H11.8135L12.4704 23.6936ZM18.2818 16.9766C18.2948 16.718 18.5153 16.5186 18.7734 16.5318C19.032 16.5448 19.2311 16.7649 19.2182 17.0234L18.9682 22.0234C18.9556 22.274 18.7485 22.4688 18.5004 22.4688C18.2305 22.4688 18.0185 22.243 18.0318 21.9766L18.2818 16.9766ZM15.2266 16.5318C15.4848 16.5189 15.7053 16.7181 15.7182 16.9766L15.9682 21.9766C15.9815 22.2432 15.7693 22.4688 15.4996 22.4688C15.2515 22.4688 15.0443 22.274 15.0318 22.0234L14.7818 17.0234C14.7689 16.7649 14.968 16.5448 15.2266 16.5318Z" fill="#FF6464"/>
</svg>
