<svg width="12" height="11" viewBox="0 0 12 11" fill="none" xmlns="http://www.w3.org/2000/svg">
<path d="M1.47041 9.69363C1.52257 10.4262 2.13873 11 2.8731 11H9.12688C9.86125 11 10.4774 10.4262 10.5296 9.69363L11.1865 0.46875H0.813477L1.47041 9.69363ZM7.28185 2.97659C7.29478 2.71803 7.51525 2.51863 7.77341 2.53184C8.03197 2.54478 8.2311 2.76487 8.21816 3.02341L7.96816 8.02341C7.95563 8.274 7.7485 8.46875 7.50038 8.46875C7.23047 8.46875 7.0185 8.24303 7.03182 7.97659L7.28185 2.97659ZM4.2266 2.53184C4.48482 2.51887 4.70526 2.71806 4.71816 2.97659L4.96816 7.97659C4.98147 8.24316 4.76935 8.46875 4.4996 8.46875C4.25147 8.46875 4.04435 8.274 4.03182 8.02341L3.78182 3.02341C3.76891 2.76487 3.96804 2.54478 4.2266 2.53184Z" fill="#FF6464"/>
</svg>
