<svg width="34" height="34" viewBox="0 0 34 34" fill="none" xmlns="http://www.w3.org/2000/svg">
<circle cx="17" cy="17" r="16.5" fill="#F5F5F5" stroke="#E6E6E6"/>
<path d="M18.8809 11.6741L10.0774 20.4874C10.0332 20.5319 10.0012 20.588 9.98594 20.6484L9.01016 24.569C8.98098 24.6871 9.01562 24.8126 9.10166 24.8987C9.16677 24.9639 9.25547 25 9.34621 25C9.374 25 9.40243 24.9965 9.43009 24.9895L13.3467 24.0126C13.4077 23.9974 13.4632 23.9655 13.5075 23.9211L22.3117 15.1084L18.8809 11.6741Z" fill="#626262"/>
<path d="M24.4929 10.4725L23.5129 9.4915C22.8579 8.83585 21.7164 8.83648 21.0622 9.4915L19.8618 10.6932L23.2925 14.1274L24.4929 12.9257C24.82 12.5984 25.0002 12.1626 25.0002 11.6992C25.0002 11.2357 24.82 10.8 24.4929 10.4725Z" fill="#626262"/>
</svg>
