<svg width="13" height="13" viewBox="0 0 13 13" fill="none" xmlns="http://www.w3.org/2000/svg">
<path d="M3.3628 0.242461C3.20043 0.2473 3.04632 0.315184 2.93312 0.431694L0.433115 2.93289C0.374915 2.99095 0.32874 3.05988 0.297234 3.13582C0.265729 3.21175 0.249512 3.29316 0.249512 3.37537C0.249512 3.45758 0.265729 3.53898 0.297234 3.61492C0.32874 3.69085 0.374915 3.75979 0.433115 3.81785L2.93312 6.31911C2.99087 6.37893 3.05998 6.42662 3.1364 6.4594C3.21283 6.49217 3.29502 6.50939 3.37817 6.51C3.46132 6.51062 3.54376 6.49464 3.62066 6.463C3.69755 6.43136 3.76736 6.38463 3.826 6.32567C3.88463 6.26671 3.93092 6.19671 3.96213 6.11964C3.99335 6.04257 4.00888 5.95999 4.0078 5.87685C4.00673 5.7937 3.98907 5.71159 3.95588 5.63535C3.92268 5.55911 3.8746 5.49028 3.81446 5.43285L2.38258 3.99857H12.1238C12.2897 3.99857 12.4488 3.93265 12.5662 3.81532C12.6835 3.698 12.7494 3.53884 12.7494 3.37292C12.7494 3.20699 12.6835 3.04791 12.5662 2.93058C12.4488 2.81325 12.2897 2.74733 12.1238 2.74733H2.38868L3.81446 1.31788C3.90548 1.23039 3.96787 1.11734 3.99342 0.993698C4.01897 0.870057 4.00647 0.741584 3.95759 0.62518C3.9087 0.508777 3.82571 0.409905 3.71954 0.341583C3.61337 0.273262 3.489 0.238728 3.3628 0.242461ZM9.6189 6.49364C9.49528 6.49464 9.37474 6.53226 9.27251 6.60177C9.17028 6.67128 9.09096 6.76955 9.04457 6.88414C8.99819 6.99873 8.98683 7.12455 9.01192 7.2456C9.03702 7.36665 9.09744 7.47752 9.18556 7.56423L10.6199 8.99973H0.876227C0.712837 9.00331 0.557345 9.07077 0.443055 9.1876C0.328766 9.30442 0.264767 9.46131 0.264767 9.62474C0.264767 9.78817 0.328766 9.94514 0.443055 10.062C0.557345 10.1788 0.712837 10.2462 0.876227 10.2498H10.6162L9.18556 11.6841C9.12013 11.7401 9.06699 11.8091 9.02948 11.8866C8.99196 11.9641 8.97088 12.0486 8.96756 12.1347C8.96424 12.2208 8.97874 12.3066 9.01017 12.3868C9.04159 12.467 9.08926 12.5399 9.15017 12.6009C9.21109 12.6618 9.28393 12.7094 9.36414 12.7409C9.44435 12.7723 9.53019 12.7868 9.61627 12.7835C9.70235 12.7801 9.78682 12.759 9.86436 12.7215C9.94191 12.684 10.0109 12.6309 10.0669 12.5655L12.5669 10.0654C12.6833 9.94831 12.7487 9.78988 12.7487 9.62474C12.7487 9.4596 12.6833 9.30118 12.5669 9.18406L10.0669 6.68287C10.0087 6.623 9.939 6.57537 9.86206 6.54287C9.78511 6.51038 9.70243 6.49364 9.6189 6.49364Z" fill="#626262"/>
</svg>
