<svg width="17" height="21" viewBox="0 0 17 21" fill="none" xmlns="http://www.w3.org/2000/svg">
<path d="M8.49987 10.2704C10.8347 10.2704 12.7277 7.9713 12.7277 5.13522C12.7277 2.29908 12.1062 0 8.49987 0C4.89357 0 4.27197 2.29908 4.27197 5.13522C4.27197 7.9713 6.16491 10.2704 8.49987 10.2704Z" fill="white"/>
<path d="M0.514503 18.1112C0.513783 17.9383 0.513063 18.0625 0.514503 18.1112V18.1112Z" fill="white"/>
<path d="M16.4851 18.2462C16.4874 18.1989 16.4859 17.9178 16.4851 18.2462V18.2462Z" fill="white"/>
<path d="M16.476 17.9038C16.3977 12.9633 15.7525 11.5555 10.8149 10.6644C10.8149 10.6644 10.1199 11.5501 8.49986 11.5501C6.87986 11.5501 6.1847 10.6644 6.1847 10.6644C1.301 11.5458 0.616524 12.9327 0.526524 17.7433C0.519144 18.1361 0.515724 18.1568 0.514404 18.1112C0.514704 18.1966 0.515064 18.3547 0.515064 18.6302C0.515064 18.6302 1.69058 21 8.49986 21C15.309 21 16.4847 18.6302 16.4847 18.6302C16.4847 18.4532 16.4848 18.3301 16.485 18.2463C16.4836 18.2745 16.481 18.2198 16.476 17.9038Z" fill="white"/>
</svg>
