<svg width="13" height="15" viewBox="0 0 13 15" fill="none" xmlns="http://www.w3.org/2000/svg">
<path d="M10.4697 0H2.53052C1.30838 0 0.317627 0.990749 0.317627 2.21289V12.7871C0.317627 14.0093 1.30838 15 2.53052 15H10.4697C11.6919 15 12.6826 14.0093 12.6826 12.7871V2.21289C12.6826 0.990749 11.6919 0 10.4697 0ZM4.6719 4.18578H8.32829C8.61032 4.18555 8.83913 4.41402 8.83936 4.69605C8.83959 4.97808 8.61112 5.20692 8.32909 5.20712C8.32883 5.20712 8.32856 5.20712 8.32829 5.20712H4.6719C4.38987 5.20712 4.16123 4.97848 4.16123 4.69645C4.16123 4.41442 4.38987 4.18578 4.6719 4.18578ZM9.64413 10.8143H3.3561C3.07407 10.8143 2.84543 10.5856 2.84543 10.3036C2.84543 10.0216 3.07407 9.79292 3.3561 9.79292H9.64413C9.92616 9.79292 10.1548 10.0216 10.1548 10.3036C10.1548 10.5856 9.92616 10.8143 9.64413 10.8143ZM9.64413 8.01067H3.3561C3.07407 8.01067 2.84543 7.78203 2.84543 7.5C2.84543 7.21797 3.07407 6.98933 3.3561 6.98933H9.64413C9.92616 6.98933 10.1548 7.21797 10.1548 7.5C10.1548 7.78203 9.92616 8.01067 9.64413 8.01067Z" fill="#626262"/>
</svg>
