<svg width="20" height="20" viewBox="0 0 20 20" fill="none" xmlns="http://www.w3.org/2000/svg">
<g clip-path="url(#clip0_375_1854)">
<path d="M15.0002 0.833252H5.00016C3.8955 0.834575 2.83646 1.27399 2.05535 2.0551C1.27423 2.83622 0.834819 3.89526 0.833496 4.99992V11.6666C0.834708 12.6268 1.1669 13.5572 1.77409 14.301C2.38128 15.0448 3.22634 15.5565 4.16683 15.7499V18.3333C4.16681 18.4841 4.20774 18.6322 4.28527 18.7616C4.36279 18.891 4.474 18.997 4.60703 19.0681C4.74005 19.1393 4.8899 19.173 5.04059 19.1657C5.19129 19.1584 5.33716 19.1103 5.46266 19.0266L10.2502 15.8333H15.0002C16.1048 15.8319 17.1639 15.3925 17.945 14.6114C18.7261 13.8303 19.1655 12.7712 19.1668 11.6666V4.99992C19.1655 3.89526 18.7261 2.83622 17.945 2.0551C17.1639 1.27399 16.1048 0.834575 15.0002 0.833252ZM13.3335 10.8333H6.66683C6.44582 10.8333 6.23385 10.7455 6.07757 10.5892C5.92129 10.4329 5.8335 10.2209 5.8335 9.99992C5.8335 9.7789 5.92129 9.56694 6.07757 9.41066C6.23385 9.25438 6.44582 9.16659 6.66683 9.16659H13.3335C13.5545 9.16659 13.7665 9.25438 13.9228 9.41066C14.079 9.56694 14.1668 9.7789 14.1668 9.99992C14.1668 10.2209 14.079 10.4329 13.9228 10.5892C13.7665 10.7455 13.5545 10.8333 13.3335 10.8333ZM15.0002 7.49992H5.00016C4.77915 7.49992 4.56719 7.41212 4.41091 7.25584C4.25463 7.09956 4.16683 6.8876 4.16683 6.66659C4.16683 6.44557 4.25463 6.23361 4.41091 6.07733C4.56719 5.92105 4.77915 5.83325 5.00016 5.83325H15.0002C15.2212 5.83325 15.4331 5.92105 15.5894 6.07733C15.7457 6.23361 15.8335 6.44557 15.8335 6.66659C15.8335 6.8876 15.7457 7.09956 15.5894 7.25584C15.4331 7.41212 15.2212 7.49992 15.0002 7.49992Z" fill="#626262"/>
</g>
<defs>
<clipPath id="clip0_375_1854">
<rect width="20" height="20" fill="white"/>
</clipPath>
</defs>
</svg>
