<svg width="15" height="16" viewBox="0 0 15 16" fill="none" xmlns="http://www.w3.org/2000/svg">
<path d="M14.2855 13.6083L11.5829 10.9057C12.4019 9.8335 12.8512 8.53294 12.8513 7.16056C12.8513 5.50671 12.2072 3.95174 11.0376 2.78231C9.86814 1.61287 8.31337 0.96875 6.65932 0.96875C5.00547 0.96875 3.4505 1.61287 2.28107 2.78231C-0.133077 5.19666 -0.133077 9.12488 2.28107 11.5388C3.4505 12.7085 5.00547 13.3526 6.65932 13.3526C8.0317 13.3524 9.33225 12.9032 10.4045 12.0841L13.1071 14.7867C13.2696 14.9495 13.4831 15.0308 13.6963 15.0308C13.9095 15.0308 14.1229 14.9495 14.2855 14.7867C14.611 14.4614 14.611 13.9336 14.2855 13.6083ZM3.45945 10.3604C1.69513 8.59611 1.69533 5.72522 3.45945 3.96069C4.31415 3.1062 5.45062 2.63542 6.65932 2.63542C7.86823 2.63542 9.0045 3.1062 9.85919 3.96069C10.7139 4.81539 11.1847 5.95186 11.1847 7.16056C11.1847 8.36947 10.7139 9.50574 9.85919 10.3604C9.0045 11.2151 7.86823 11.6859 6.65932 11.6859C5.45062 11.6859 4.31415 11.2151 3.45945 10.3604Z" fill="white"/>
</svg>
