<svg width="21" height="19" viewBox="0 0 21 19" fill="none" xmlns="http://www.w3.org/2000/svg">
<path d="M11.1152 13.1914C11.455 13.1914 11.7305 12.9159 11.7305 12.5762V10.1152C11.7305 9.7755 11.4551 9.5 11.1152 9.5H9.88477C9.54503 9.5 9.26953 9.77538 9.26953 10.1152V12.5762C9.26953 12.9159 9.54499 13.1914 9.88477 13.1914H11.1152Z" fill="white"/>
<path d="M19.1543 2.73242H14.8066C14.8066 2.60851 14.8066 1.99328 14.8066 2.11719C14.8066 1.09943 13.9787 0.271484 12.9609 0.271484C12.8274 0.271484 7.85634 0.271484 8.03906 0.271484C7.0213 0.271484 6.19336 1.09938 6.19336 2.11719C6.19336 2.2411 6.19336 2.85633 6.19336 2.73242H1.8457C0.827941 2.73242 0 3.56032 0 4.57813C0 5.78304 0.147656 6.83825 0.440836 7.73752C0.734016 8.63679 1.17276 9.38015 1.75498 9.96143C2.73472 10.9399 3.98266 11.3457 5.38392 11.3457H8.03906C8.03906 11.2218 8.03906 9.99133 8.03906 10.1152C8.03906 9.09747 8.86696 8.26953 9.88477 8.26953C10.0087 8.26953 11.2391 8.26953 11.1152 8.26953C12.133 8.26953 12.9609 9.09743 12.9609 10.1152C12.9609 10.2391 12.9609 11.4696 12.9609 11.3457H14.3279C15.5527 11.2948 17.556 11.6672 19.2444 9.98665C19.8269 9.40685 20.2658 8.66217 20.5591 7.75868C20.8524 6.85519 21 5.79297 21 4.57813C21 3.56036 20.1721 2.73242 19.1543 2.73242ZM7.42383 2.11719C7.42383 1.77774 7.69958 1.50195 8.03906 1.50195H12.9609C13.3004 1.50195 13.5762 1.7777 13.5762 2.11719C13.5762 2.2411 13.5762 2.85633 13.5762 2.73242H7.42383C7.42383 2.60851 7.42383 1.99328 7.42383 2.11719Z" fill="white"/>
<path d="M14.3448 12.5762H12.9609C12.9609 13.5939 12.133 14.4219 11.1152 14.4219C10.9913 14.4219 9.76086 14.4219 9.88477 14.4219C8.867 14.4219 8.03906 13.594 8.03906 12.5762C7.8985 12.5762 5.23737 12.5762 5.38929 12.5762C3.63448 12.5762 2.09315 12.0377 0.885568 10.832C0.544441 10.4915 0.253148 10.108 0 9.69791V18.1133C0 18.4533 0.275174 18.7285 0.615234 18.7285H20.3848C20.7248 18.7285 21 18.4533 21 18.1133V9.72321C20.7434 10.1396 20.451 10.5221 20.1126 10.8591C18.1713 12.7902 16.1038 12.4931 14.3448 12.5762Z" fill="white"/>
</svg>
