<svg width="34" height="34" viewBox="0 0 34 34" fill="none" xmlns="http://www.w3.org/2000/svg">
<circle cx="17" cy="17" r="16.5" fill="#F5F5F5" stroke="#E6E6E6"/>
<path d="M20.003 24.0047C19.8713 24.0055 19.7407 23.9802 19.6187 23.9304C19.4968 23.8806 19.3859 23.8072 19.2923 23.7144L13.2862 17.7083C13.0998 17.5207 12.9951 17.267 12.9951 17.0026C12.9951 16.7381 13.0998 16.4844 13.2862 16.2969L19.2923 10.2908C19.4838 10.1268 19.7301 10.0411 19.9821 10.0508C20.234 10.0605 20.473 10.165 20.6513 10.3432C20.8295 10.5215 20.934 10.7605 20.9437 11.0124C20.9534 11.2644 20.8677 11.5107 20.7038 11.7022L15.4084 16.9976L20.7038 22.293C20.8443 22.4324 20.9404 22.6103 20.9798 22.8043C21.0192 22.9984 21.0002 23.1997 20.9252 23.3829C20.8502 23.5661 20.7226 23.723 20.5584 23.8337C20.3943 23.9444 20.201 24.0039 20.003 24.0047V24.0047Z" fill="#626262"/>
</svg>
