<svg width="34" height="34" viewBox="0 0 34 34" fill="none" xmlns="http://www.w3.org/2000/svg">
<path d="M24.0834 2.8335H9.91671C6.00469 2.8335 2.83337 6.00481 2.83337 9.91683V24.0835C2.83337 27.9955 6.00469 31.1668 9.91671 31.1668H24.0834C27.9954 31.1668 31.1667 27.9955 31.1667 24.0835V9.91683C31.1667 6.00481 27.9954 2.8335 24.0834 2.8335Z" fill="url(#paint0_linear_131_979)"/>
<g clip-path="url(#clip0_131_979)">
<path d="M24.9152 12.6049L21.395 9.08464C21.2343 8.93127 21.0206 8.8457 20.7984 8.8457C20.5762 8.8457 20.3626 8.93127 20.2018 9.08464L18.1334 11.1531C18.0807 11.2058 18.051 11.2774 18.051 11.352C18.051 11.4265 18.0807 11.4981 18.1334 11.5508L22.4492 15.8666C22.5019 15.9193 22.5734 15.949 22.648 15.949C22.7226 15.949 22.7941 15.9193 22.8469 15.8666L24.9152 13.7981C25.0732 13.6398 25.162 13.4252 25.162 13.2015C25.162 12.9778 25.0732 12.7633 24.9152 12.6049Z" fill="white"/>
<path d="M21.556 16.644L17.356 12.4439C17.3168 12.4044 17.2667 12.3776 17.2121 12.3667C17.1576 12.3559 17.1011 12.3615 17.0497 12.3829L12.226 14.3753C12.188 14.391 12.1539 14.4148 12.126 14.4451C12.0982 14.4755 12.0774 14.5115 12.0651 14.5508L8.85048 24.7969C8.83723 24.8391 8.83409 24.8837 8.84131 24.9273C8.84853 24.9709 8.86591 25.0121 8.89204 25.0477C8.91817 25.0833 8.95231 25.1123 8.99171 25.1322C9.03111 25.1522 9.07466 25.1626 9.11882 25.1626C9.14738 25.1626 9.17577 25.1583 9.203 25.1496L19.4489 21.9348C19.4882 21.9224 19.5243 21.9016 19.5547 21.8738C19.585 21.846 19.609 21.8118 19.6247 21.7738L21.6172 16.9504C21.6385 16.899 21.644 16.8424 21.6331 16.7879C21.6222 16.7334 21.5954 16.6833 21.556 16.644Z" fill="white"/>
<path d="M22.7574 15.3791L18.6207 11.2425C18.4624 11.0844 18.2478 10.9956 18.0241 10.9956C17.8004 10.9956 17.5858 11.0844 17.4275 11.2425L16.99 11.68C16.8319 11.8383 16.7432 12.0529 16.7432 12.2766C16.7432 12.5003 16.8319 12.7148 16.99 12.8731L21.1267 17.01C21.2851 17.168 21.4997 17.2567 21.7233 17.2567C21.947 17.2567 22.1616 17.168 22.32 17.01L22.7572 16.5725C22.8355 16.4942 22.8977 16.4012 22.9402 16.2988C22.9826 16.1964 23.0044 16.0867 23.0044 15.9758C23.0045 15.865 22.9826 15.7553 22.9402 15.6529C22.8978 15.5505 22.8357 15.4575 22.7573 15.3791H22.7574Z" fill="#FFAAAA"/>
<path d="M16.2657 17.7344C15.9932 17.461 15.6284 17.2995 15.2428 17.2815C14.8572 17.2635 14.4789 17.3904 14.1822 17.6372C13.8854 17.8841 13.6918 18.233 13.6393 18.6154C13.5868 18.9978 13.6793 19.386 13.8986 19.7037L8.91994 24.6825C8.86718 24.7352 8.83754 24.8068 8.83752 24.8814C8.83751 24.956 8.86713 25.0275 8.91987 25.0803C8.97261 25.133 9.04415 25.1627 9.11875 25.1627C9.19335 25.1627 9.2649 25.1331 9.31766 25.0803L14.2963 20.1014C14.614 20.32 15.0019 20.412 15.384 20.3594C15.766 20.3067 16.1146 20.1131 16.3612 19.8167C16.6079 19.5202 16.7348 19.1423 16.7172 18.757C16.6995 18.3718 16.5385 18.0071 16.2657 17.7344Z" fill="#FFAAAA"/>
</g>
<defs>
<linearGradient id="paint0_linear_131_979" x1="6.09808" y1="6.0982" x2="28.7718" y2="28.772" gradientUnits="userSpaceOnUse">
<stop stop-color="#FF8D8D"/>
<stop offset="0.252" stop-color="#F78787"/>
<stop offset="0.555" stop-color="#E86565"/>
<stop offset="0.815" stop-color="#F35555"/>
<stop offset="1" stop-color="#F95353"/>
</linearGradient>
<clipPath id="clip0_131_979">
<rect width="18" height="18" fill="white" transform="translate(8 8)"/>
</clipPath>
</defs>
</svg>
