<svg width="14" height="18" viewBox="0 0 14 18" fill="none" xmlns="http://www.w3.org/2000/svg">
<path d="M6.41067 0.910579C6.73609 0.585146 7.26375 0.585146 7.58917 0.910579L10.0892 3.41058C10.4146 3.73602 10.4146 4.26365 10.0892 4.5891C9.76375 4.91453 9.23609 4.91453 8.91067 4.5891L7.83325 3.51168V11.4998C7.83325 11.9601 7.46017 12.3332 6.99992 12.3332C6.53967 12.3332 6.16659 11.9601 6.16659 11.4998V3.51168L5.08918 4.5891C4.76374 4.91453 4.2361 4.91453 3.91066 4.5891C3.58523 4.26365 3.58523 3.73602 3.91066 3.41058L6.41067 0.910579ZM0.333252 8.1665C0.333252 7.24603 1.07944 6.49984 1.99992 6.49984H3.66659C4.12682 6.49984 4.49992 6.87294 4.49992 7.33317C4.49992 7.79342 4.12682 8.1665 3.66659 8.1665H1.99992V15.6665H11.9999V8.1665H10.3333C9.873 8.1665 9.49992 7.79342 9.49992 7.33317C9.49992 6.87294 9.873 6.49984 10.3333 6.49984H11.9999C12.9204 6.49984 13.6666 7.24603 13.6666 8.1665V15.6665C13.6666 16.587 12.9204 17.3332 11.9999 17.3332H1.99992C1.07944 17.3332 0.333252 16.587 0.333252 15.6665V8.1665Z" fill="white"/>
</svg>
