<svg width="15" height="15" viewBox="0 0 15 15" fill="none" xmlns="http://www.w3.org/2000/svg">
<g clip-path="url(#clip0_190_1868)">
<path d="M5.625 6.25C3.90188 6.25 2.5 4.84813 2.5 3.125C2.5 1.40188 3.90188 0 5.625 0C7.34813 0 8.75 1.40188 8.75 3.125C8.75 4.84813 7.34813 6.25 5.625 6.25Z" fill="#626262"/>
<path d="M2.96875 7.49991C1.33125 7.49991 0 8.83117 0 10.4687V12.6562C0 12.9124 0.2125 13.1249 0.46875 13.1249H6.25V11.0937C6.25 9.91867 7.125 8.94992 8.25625 8.78117C8.41875 8.30617 8.725 7.90616 9.11875 7.61866C8.49375 7.43991 8.46 7.49991 2.96875 7.49991Z" fill="#626262"/>
<path d="M13.9062 10H13.1249V9.53125C13.1249 8.92813 12.6343 8.4375 12.0312 8.4375H10.4687C9.86555 8.4375 9.37492 8.92813 9.37492 9.53125V10H8.59367C8.28617 10 8.0093 10.1281 7.81055 10.3331L11.2499 12.1275L14.6893 10.3331C14.4905 10.1281 14.2137 10 13.9062 10ZM10.3124 10V9.53125C10.3124 9.445 10.3824 9.375 10.4687 9.375H12.0312C12.1174 9.375 12.1874 9.445 12.1874 9.53125V10H10.3124Z" fill="#626262"/>
<path d="M11.4669 13.0723C11.3313 13.1429 11.1687 13.1429 11.0337 13.0723L7.5 11.2285V13.9066C7.5 14.5098 7.99063 15.0004 8.59375 15.0004H13.9062C14.5094 15.0004 15 14.5098 15 13.9066V11.2285L11.4669 13.0723Z" fill="#626262"/>
</g>
<defs>
<clipPath id="clip0_190_1868">
<rect width="15" height="15" fill="white"/>
</clipPath>
</defs>
</svg>
