<svg width="34" height="34" viewBox="0 0 34 34" fill="none" xmlns="http://www.w3.org/2000/svg">
<path d="M24.0834 2.8335H9.91671C6.00469 2.8335 2.83337 6.00481 2.83337 9.91683V24.0835C2.83337 27.9955 6.00469 31.1668 9.91671 31.1668H24.0834C27.9954 31.1668 31.1667 27.9955 31.1667 24.0835V9.91683C31.1667 6.00481 27.9954 2.8335 24.0834 2.8335Z" fill="url(#paint0_linear_131_956)"/>
<g opacity="0.9">
<path d="M12.7501 20.896C12.6105 20.8961 12.4723 20.8686 12.3434 20.8153C12.2144 20.7619 12.0972 20.6837 11.9985 20.5851L9.1652 17.7517C9.06647 17.653 8.98814 17.5359 8.9347 17.4069C8.88126 17.278 8.85376 17.1398 8.85376 17.0002C8.85376 16.8606 8.88126 16.7224 8.9347 16.5934C8.98814 16.4645 9.06647 16.3473 9.1652 16.2486L11.9985 13.4153C12.1979 13.216 12.4682 13.104 12.7501 13.104C13.032 13.104 13.3023 13.216 13.5016 13.4153C13.7009 13.6146 13.8129 13.885 13.8129 14.1668C13.8129 14.4487 13.7009 14.7191 13.5016 14.9184L11.4191 17.0002L13.5016 19.082C13.6503 19.2306 13.7516 19.4199 13.7926 19.6261C13.8337 19.8323 13.8126 20.046 13.7322 20.2402C13.6517 20.4344 13.5154 20.6004 13.3406 20.7171C13.1658 20.8338 12.9603 20.8961 12.7501 20.896Z" fill="white"/>
</g>
<g opacity="0.9">
<path d="M21.25 20.896C21.0398 20.8961 20.8343 20.8338 20.6594 20.7171C20.4846 20.6004 20.3484 20.4344 20.2679 20.2402C20.1875 20.046 20.1664 19.8323 20.2075 19.6261C20.2485 19.4199 20.3498 19.2306 20.4985 19.082L22.581 17.0002L20.4985 14.9184C20.3998 14.8197 20.3215 14.7025 20.2681 14.5736C20.2146 14.4446 20.1872 14.3064 20.1872 14.1668C20.1872 14.0273 20.2146 13.8891 20.2681 13.7601C20.3215 13.6312 20.3998 13.514 20.4985 13.4153C20.6978 13.216 20.9681 13.104 21.25 13.104C21.3896 13.104 21.5278 13.1315 21.6567 13.1849C21.7857 13.2383 21.9028 13.3166 22.0015 13.4153L24.8349 16.2486C24.9336 16.3473 25.0119 16.4645 25.0654 16.5934C25.1188 16.7224 25.1463 16.8606 25.1463 17.0002C25.1463 17.1398 25.1188 17.278 25.0654 17.4069C25.0119 17.5359 24.9336 17.653 24.8349 17.7517L22.0015 20.5851C21.9028 20.6837 21.7856 20.7619 21.6567 20.8153C21.5277 20.8686 21.3895 20.8961 21.25 20.896Z" fill="white"/>
</g>
<g opacity="0.5">
<path d="M15.5833 23.021C15.4844 23.0209 15.3859 23.007 15.2908 22.9799C15.0199 22.9025 14.7909 22.7206 14.6541 22.4743C14.5173 22.2281 14.4839 21.9376 14.5612 21.6667L17.3945 11.75C17.4307 11.6134 17.4937 11.4853 17.5798 11.3734C17.666 11.2614 17.7737 11.1677 17.8966 11.0979C18.0194 11.028 18.1549 10.9834 18.2952 10.9665C18.4355 10.9497 18.5778 10.961 18.7137 10.9999C18.8495 11.0387 18.9763 11.1042 19.0865 11.1926C19.1968 11.281 19.2883 11.3906 19.3557 11.5148C19.423 11.639 19.465 11.7754 19.479 11.916C19.4931 12.0566 19.4789 12.1986 19.4374 12.3337L16.604 22.2503C16.5407 22.4722 16.4068 22.6674 16.2226 22.8064C16.0385 22.9455 15.8141 23.0208 15.5833 23.021Z" fill="white"/>
</g>
<defs>
<linearGradient id="paint0_linear_131_956" x1="6.09808" y1="6.0982" x2="28.7718" y2="28.772" gradientUnits="userSpaceOnUse">
<stop stop-color="#9B8DFF"/>
<stop offset="0.252" stop-color="#7D79FD"/>
<stop offset="0.555" stop-color="#5F65FB"/>
<stop offset="0.815" stop-color="#4D58F9"/>
<stop offset="1" stop-color="#4654F9"/>
</linearGradient>
</defs>
</svg>
