<svg width="16" height="16" viewBox="0 0 16 16" fill="none" xmlns="http://www.w3.org/2000/svg">
<path d="M13.7774 13.8674H2.22696C1.8742 13.8674 1.5874 14.1565 1.5874 14.507V15.3605C1.5874 15.7133 1.87646 16 2.22696 16H13.7729C14.1257 16 14.4124 15.711 14.4124 15.3605V14.507C14.4193 14.1519 14.1302 13.8674 13.7774 13.8674Z" fill="#626262"/>
<path d="M7.55474 12.7226C7.67993 12.8478 7.8438 12.9115 8.00538 12.9115C8.16925 12.9115 8.33312 12.8478 8.45602 12.7226L12.8304 8.34822C13.0785 8.10016 13.0785 7.69504 12.8304 7.44239L12.225 6.83698C11.9769 6.58889 11.5718 6.58889 11.3192 6.83698L9.07053 9.08792V0.63956C9.07053 0.286771 8.78147 0 8.431 0H7.5775C7.22474 0 6.93794 0.28448 6.93794 0.63956V9.09018L4.68703 6.83925C4.43894 6.59118 4.03156 6.59118 3.7812 6.83925L3.17579 7.44465C2.92773 7.69272 2.92773 8.10013 3.17579 8.35048L7.55474 12.7226Z" fill="#626262"/>
</svg>
