<svg width="197" height="46" viewBox="0 0 197 46" fill="none" xmlns="http://www.w3.org/2000/svg">
<path d="M0 23C0 10.2975 10.2975 0 23 0H175V46H23C10.2975 46 0 35.7025 0 23Z" fill="url(#paint0_linear_89_928)"/>
<rect x="151" width="46" height="46" rx="23" fill="#E5E5E5"/>
<path d="M164.71 24.3563L164.711 24.3574L171.032 30.6477C171.506 31.119 172.272 31.1172 172.743 30.6436C173.214 30.1701 173.212 29.4042 172.739 28.9329L168.495 24.7097H183.435C184.103 24.7097 184.645 24.1681 184.645 23.5C184.645 22.8319 184.103 22.2903 183.435 22.2903H168.495L172.739 18.0671C173.212 17.5958 173.214 16.8299 172.743 16.3564C172.271 15.8827 171.506 15.8811 171.032 16.3523L164.711 22.6426L164.71 22.6437C164.236 23.1166 164.238 23.885 164.71 24.3563Z" fill="#626262"/>
<defs>
<linearGradient id="paint0_linear_89_928" x1="151" y1="23" x2="-1.61806e-06" y2="23" gradientUnits="userSpaceOnUse">
<stop stop-color="#0A2E65"/>
<stop offset="1" stop-color="#03072E" stop-opacity="0"/>
</linearGradient>
</defs>
</svg>
