<svg width="32" height="36" viewBox="0 0 32 36" fill="none" xmlns="http://www.w3.org/2000/svg">
<path d="M7 0C5.7625 0 4.75 1.0125 4.75 2.25V33.75C4.75 34.9875 5.7625 36 7 36H29.5C30.7375 36 31.75 34.9875 31.75 33.75V9L22.75 0H7Z" fill="#E2E5E7"/>
<path d="M25 9H31.75L22.75 0V6.75C22.75 7.9875 23.7625 9 25 9Z" fill="#B0B7BD"/>
<path d="M31.75 15.75L25 9H31.75V15.75Z" fill="#CAD1D8"/>
<path d="M27.25 29.25C27.25 29.8687 26.7437 30.375 26.125 30.375H1.375C0.75625 30.375 0.25 29.8687 0.25 29.25V18C0.25 17.3812 0.75625 16.875 1.375 16.875H26.125C26.7437 16.875 27.25 17.3812 27.25 18V29.25Z" fill="#F15642"/>
<path d="M5.15381 21.3153C5.15381 21.0183 5.38781 20.6943 5.76468 20.6943H7.84256C9.01256 20.6943 10.0656 21.4773 10.0656 22.9781C10.0656 24.4001 9.01256 25.1921 7.84256 25.1921H6.34068V26.3801C6.34068 26.7761 6.08868 27 5.76468 27C5.46768 27 5.15381 26.7761 5.15381 26.3801V21.3153ZM6.34068 21.8272V24.0682H7.84256C8.44556 24.0682 8.92256 23.5361 8.92256 22.9781C8.92256 22.3492 8.44556 21.8272 7.84256 21.8272H6.34068Z" fill="white"/>
<path d="M11.8275 27C11.5305 27 11.2065 26.838 11.2065 26.4431V21.3334C11.2065 21.0105 11.5305 20.7754 11.8275 20.7754H13.8874C17.9982 20.7754 17.9082 27 13.9684 27H11.8275ZM12.3945 21.8734V25.9031H13.8874C16.3163 25.9031 16.4243 21.8734 13.8874 21.8734H12.3945Z" fill="white"/>
<path d="M19.3657 21.9453V23.3752H21.6596C21.9836 23.3752 22.3076 23.6992 22.3076 24.013C22.3076 24.31 21.9836 24.553 21.6596 24.553H19.3657V26.4419C19.3657 26.7569 19.1418 26.9988 18.8268 26.9988C18.4308 26.9988 18.189 26.7569 18.189 26.4419V21.3322C18.189 21.0093 18.432 20.7742 18.8268 20.7742H21.9847C22.3807 20.7742 22.6147 21.0093 22.6147 21.3322C22.6147 21.6202 22.3807 21.9442 21.9847 21.9442H19.3657V21.9453Z" fill="white"/>
<path d="M26.125 30.375H4.75V31.5H26.125C26.7437 31.5 27.25 30.9937 27.25 30.375V29.25C27.25 29.8688 26.7437 30.375 26.125 30.375Z" fill="#CAD1D8"/>
</svg>
