<svg width="20" height="20" viewBox="0 0 20 20" fill="none" xmlns="http://www.w3.org/2000/svg">
<path d="M11.5696 14.9528C11.508 15.1024 11.3616 15.2 11.2 15.2H10.4H9.6H8.8C8.6384 15.2 8.49199 15.1024 8.43039 14.9528C8.36879 14.8032 8.4032 14.6312 8.51758 14.5168L9.19996 13.8344V9.36559L8.51758 8.68238C8.40316 8.56797 8.36879 8.39598 8.43039 8.24637C8.49199 8.09676 8.6384 7.99996 8.8 7.99996H9.6H10H10.4C10.6208 7.99996 10.8 8.17836 10.8 8.39996V13.8344L11.4832 14.5168C11.5968 14.6312 11.6312 14.8032 11.5696 14.9528ZM10 4.8C10.6616 4.8 11.2 5.33762 11.2 6C11.2 6.6616 10.6616 7.2 10 7.2C9.3384 7.2 8.8 6.6616 8.8 6C8.8 5.33762 9.3384 4.8 10 4.8ZM10 0C4.48641 0 0 4.48559 0 10C0 15.5136 4.48641 20 10 20C15.5144 20 20 15.5136 20 10C20 4.48559 15.5144 0 10 0Z" fill="#F58722"/>
</svg>
