<svg width="134" height="66" viewBox="0 0 134 66" fill="none" xmlns="http://www.w3.org/2000/svg">
<path d="M99.7315 4.10803C100.405 4.48549 100.932 5.0111 101.312 5.6889C101.692 6.36671 101.883 7.14802 101.883 8.03485C101.883 8.92169 101.692 9.70706 101.312 10.3889C100.932 11.0708 100.405 11.6005 99.7315 11.9779C99.058 12.3554 98.2974 12.5441 97.4476 12.5441C96.7959 12.5441 96.2016 12.4163 95.6609 12.1626C95.1201 11.9089 94.6744 11.5355 94.3218 11.0485V12.4467H92.7986V0.0979919H94.3872V4.9563C94.7398 4.48955 95.1815 4.13847 95.7104 3.899C96.2393 3.66156 96.8197 3.54183 97.4476 3.54183C98.2974 3.54183 99.058 3.73056 99.7315 4.10803ZM98.8302 10.7542C99.2759 10.4945 99.6305 10.1271 99.8899 9.65632C100.149 9.18551 100.278 8.64367 100.278 8.03485C100.278 7.42604 100.147 6.8842 99.8899 6.41339C99.6305 5.94258 99.2779 5.57932 98.8302 5.32362C98.3825 5.06792 97.8794 4.94007 97.3168 4.94007C96.7642 4.94007 96.263 5.06792 95.8114 5.32362C95.3598 5.57932 95.0052 5.94258 94.7517 6.41339C94.4981 6.8842 94.3714 7.42604 94.3714 8.03485C94.3714 8.64569 94.4981 9.18551 94.7517 9.65632C95.0052 10.1271 95.3578 10.4945 95.8114 10.7542C96.263 11.014 96.7662 11.1459 97.3168 11.1459C97.8774 11.1459 98.3825 11.014 98.8302 10.7542Z" fill="white"/>
<path d="M59.4637 1.58544V5.88568H65.6181V7.40161H59.4637V12.3898H57.7107V0.051239H66.3709V1.58544H59.4637Z" fill="white"/>
<path d="M76.5132 3.95275C77.1966 4.58794 77.5393 5.53363 77.5393 6.78981V12.4294H75.9447V11.1956C75.6634 11.6299 75.2633 11.9627 74.7443 12.192C74.2234 12.4213 73.6073 12.535 72.8942 12.535C71.8543 12.535 71.0204 12.2833 70.3964 11.778C69.7705 11.2727 69.4595 10.6091 69.4595 9.78719C69.4595 8.96529 69.7566 8.30372 70.3528 7.80449C70.9491 7.30527 71.8959 7.05566 73.1933 7.05566H75.8575V6.72081C75.8575 5.99227 75.6476 5.43419 75.2276 5.04658C74.8057 4.65897 74.1877 4.46415 73.3696 4.46415C72.8209 4.46415 72.2821 4.55547 71.7572 4.73812C71.2303 4.92076 70.7866 5.16428 70.4241 5.46869L69.7229 4.20033C70.2023 3.81272 70.7747 3.51644 71.4403 3.30944C72.1059 3.10447 72.813 3.00098 73.5618 3.00098C74.8453 3.00098 75.8298 3.31756 76.5132 3.95275ZM74.8394 10.7998C75.3069 10.5117 75.6456 10.1038 75.8556 9.5741V8.26922H73.2607C71.8345 8.26922 71.1214 8.75221 71.1214 9.71413C71.1214 10.1849 71.3016 10.5543 71.6641 10.8242C72.0266 11.0941 72.5297 11.2301 73.1715 11.2301C73.8153 11.2321 74.3719 11.088 74.8394 10.7998Z" fill="white"/>
<path d="M87.5591 4.00813C88.2326 4.38559 88.7595 4.91119 89.1398 5.589C89.5201 6.26681 89.7103 7.04812 89.7103 7.93496C89.7103 8.82179 89.5201 9.60715 89.1398 10.289C88.7595 10.9709 88.2326 11.5006 87.5591 11.878C86.8856 12.2555 86.125 12.4442 85.2752 12.4442C84.6235 12.4442 84.0293 12.3164 83.4885 12.0627C82.9477 11.809 82.5021 11.4356 82.1495 10.9486V12.3468H80.6262V0.00012207H82.2148V4.85843C82.5674 4.39168 83.0092 4.0406 83.538 3.80113C84.0669 3.56369 84.6473 3.44396 85.2752 3.44396C86.123 3.44193 86.8856 3.63066 87.5591 4.00813ZM86.6559 10.6543C87.1015 10.3946 87.4561 10.0272 87.7156 9.55642C87.9751 9.08561 88.1038 8.54377 88.1038 7.93496C88.1038 7.32614 87.9731 6.7843 87.7156 6.31349C87.4561 5.84267 87.1035 5.47942 86.6559 5.22372C86.2082 4.96802 85.7051 4.84017 85.1425 4.84017C84.5898 4.84017 84.0887 4.96802 83.6371 5.22372C83.1854 5.47942 82.8309 5.84267 82.5773 6.31349C82.3238 6.7843 82.197 7.32614 82.197 7.93496C82.197 8.5458 82.3238 9.08561 82.5773 9.55642C82.8309 10.0272 83.1835 10.3946 83.6371 10.6543C84.0907 10.9141 84.5918 11.046 85.1425 11.046C85.7051 11.046 86.2102 10.9161 86.6559 10.6543Z" fill="white"/>
<path d="M105.258 1.77851C105.066 1.59181 104.971 1.36249 104.971 1.09055C104.971 0.818617 105.066 0.587269 105.258 0.394478C105.45 0.201688 105.692 0.104279 105.981 0.104279C106.27 0.104279 106.512 0.195601 106.704 0.378244C106.896 0.560887 106.991 0.788176 106.991 1.05808C106.991 1.34016 106.896 1.5776 106.704 1.77039C106.512 1.96318 106.27 2.06059 105.981 2.06059C105.692 2.06059 105.45 1.96724 105.258 1.77851ZM105.242 3.77338H106.785V12.3373H105.242V3.77338Z" fill="white"/>
<path d="M33.3876 10.003C35.8532 14.9027 35.646 21.232 32.877 26.0711C31.5796 28.3381 30.7718 28.9577 28.9458 29.1058C27.4112 29.2297 24.7113 28.7763 23.3058 28.1597C21.7351 27.4766 21.0774 26.3008 20.636 23.3659C19.5458 16.1752 23.4049 7.72099 28.0989 7.02882C30.3333 6.69936 32.2734 7.79051 33.3876 10.003Z" fill="white"/>
<path d="M31.0952 32.343C31.7589 33.2195 31.3174 35.7222 30.1882 37.436C28.7167 39.6788 26.4402 40.6853 24.0467 40.1473C20.6741 39.3947 18.6049 34.7852 20.1485 31.4695C20.3768 30.9768 20.59 30.7924 21.1186 30.6473C21.6381 30.5022 22.7223 30.6171 24.347 30.9858C25.293 31.1944 25.6204 31.2458 26.8186 31.3788C29.966 31.7294 30.7679 31.9138 31.0952 32.343Z" fill="#F58722"/>
<path d="M16.4216 43.6112C17.1845 47.4741 15.1243 51.0619 11.8267 51.6301C8.62833 52.1742 5.27075 49.2272 4.93739 45.5638C4.81426 44.2187 5.07554 43.714 6.09063 43.3059C6.6252 43.0913 7.04564 43.0067 8.85357 42.7286C9.76054 42.5896 10.4423 42.4354 12.043 42.0062C13.1872 41.6979 13.3944 41.6465 13.7518 41.5921C13.911 41.5679 14.0731 41.5468 14.1272 41.5377C15.3465 41.3201 16.1093 42.0123 16.4216 43.6112Z" fill="white"/>
<path d="M14.9259 30.4635C15.5355 35.2241 14.5595 38.3283 12.0638 39.5192C8.19567 41.369 5.3186 41.1544 3.6308 38.8814C1.15015 35.5566 -0.246336 30.9622 0.0359649 27.0994C0.372324 22.5141 2.69981 18.89 5.52282 18.5515C9.59216 18.0649 14.0639 23.7262 14.9259 30.4635Z" fill="white"/>
<g clip-path="url(#clip0_388_6)">
<path d="M74.2889 25.8513C73.3157 23.9901 71.1891 23.293 68.4629 23.9479C62.9571 25.2703 57.9983 32.1045 54.7851 37.6512C55.6602 34.4591 56.2714 32.3683 56.685 30.9478C57.4431 28.3688 57.5122 28.1069 57.2016 27.5964C57.1091 27.448 56.9852 27.3217 56.8387 27.2265C56.6922 27.1312 56.5266 27.0694 56.3536 27.0452C56.0519 26.9992 55.7441 27.0139 55.4481 27.0882C55.1521 27.1625 54.8738 27.2951 54.6295 27.4782C54.3828 27.7073 53.9972 28.0641 48.5369 49.1737C47.8966 49.2208 47.2531 49.1982 46.6176 49.1063C45.5794 48.4686 43.702 49.1271 43.721 50.3871C43.7233 50.6417 43.814 50.8875 43.9776 51.0824C44.1412 51.2773 44.3674 51.4091 44.6174 51.4552C45.0906 51.8703 45.5419 52.31 45.9691 52.7724C46.5983 53.4329 47.0123 53.8241 47.281 54.0805C47.3024 54.1092 47.3276 54.1348 47.3558 54.1568C47.1974 54.9121 46.8145 56.3818 46.4728 57.7095C45.967 59.0814 45.6512 60.5161 45.5341 61.9739C45.4989 62.1375 45.4976 62.3068 45.5304 62.471C45.5633 62.6352 45.6295 62.7908 45.725 62.9283C45.8578 63.0882 46.0214 63.2196 46.206 63.3146C46.3907 63.4097 46.5926 63.4666 46.7996 63.4817C47.0175 63.5059 47.2378 63.4976 47.4532 63.4569C47.6524 63.404 47.8422 63.3202 48.0155 63.2085L48.1766 63.0944C48.5979 62.7289 48.6814 62.3692 48.8583 61.534C49.3647 59.2419 49.8397 57.4481 50.1249 56.436C52.2179 57.8583 57.2675 61.0052 62.8803 59.657C63.8875 59.4034 64.8609 59.0302 65.7797 58.5454C65.8154 58.5368 68.1262 57.1702 68.3729 56.4693L68.4285 56.2294C68.4455 55.9194 68.3478 55.614 68.1542 55.3716C67.9606 55.1291 67.6846 54.9666 67.379 54.915C67.0759 54.8485 66.761 54.8592 66.4632 54.9463C65.9682 55.0963 65.5152 55.3602 65.1402 55.717C64.7711 56.0122 64.3825 56.2821 63.977 56.5249C63.3971 56.8306 62.7832 57.0667 62.1481 57.2284C57.9251 58.2427 53.5603 55.5164 51.0641 53.5115L51.1646 53.2231C51.3657 52.6464 51.5854 51.9897 51.8 51.3908L52.7444 51.164C61.605 48.9791 70.4777 39.9969 73.6255 32.9183C74.9517 29.9575 75.1752 27.5069 74.2889 25.8513ZM52.9615 48.4507C53.3758 47.4264 53.9262 46.1051 54.3889 45.1258C59.715 33.3719 65.8368 27.1454 69.2579 26.3237C69.5948 26.1974 69.9613 26.1728 70.312 26.2529C70.6627 26.333 70.9823 26.5144 71.2312 26.7745C72.0706 27.7619 71.6654 30.1618 70.1575 33.0718C68.1202 36.7738 65.4223 40.0701 62.1977 42.7973C59.4993 45.244 56.3663 47.1616 52.9615 48.4507Z" fill="url(#paint0_linear_388_6)"/>
<path d="M98.3601 19.2769C98.2824 19.5032 98.1725 19.8315 98.0527 20.2755C96.4632 25.2057 94.0978 32.7193 93.2428 35.6801C94.3547 35.3822 95.5206 35.3477 96.6481 35.5794C96.9142 35.6501 97.1489 35.8083 97.3145 36.0287C97.48 36.2491 97.5668 36.5188 97.5608 36.7945C97.5498 37.0016 97.4714 37.1994 97.3376 37.3577C97.0907 37.6217 96.7781 37.8151 96.4319 37.9181C96.0857 38.0212 95.7184 38.0301 95.3676 37.9441C95.2925 37.934 95.2163 37.9333 95.141 37.942L95.1232 37.9462C94.9585 37.9669 94.687 38.0133 94.3755 38.0503L94.3399 38.0589C93.9793 38.1266 93.5295 38.2158 93.0085 38.322L92.4383 38.459C91.9263 40.4127 89.9241 49.4432 90.1746 51.1194C90.3012 51.2335 90.399 51.3759 90.46 51.5351C90.5211 51.6943 90.5436 51.8657 90.5258 52.0353C90.4592 52.3374 90.3034 52.6124 90.0786 52.8246C89.8538 53.0367 89.5706 53.1763 89.2656 53.2251C89.041 53.3011 88.8031 53.3292 88.5671 53.3076C88.3311 53.2859 88.1022 53.215 87.8953 53.0993C87.6883 52.9837 87.5078 52.8259 87.3654 52.6361C87.223 52.4464 87.1219 52.2288 87.0685 51.9976C86.9311 51.5021 86.528 49.9758 89.0928 39.2815C86.745 39.8642 82.2448 41.0584 80.85 41.45C80.763 41.7163 80.671 42.0404 80.5655 42.3866C77.8892 50.8052 76.5421 55.0166 73.9128 55.7614C73.512 55.8917 73.086 55.9245 72.6701 55.857C72.2542 55.7895 71.8603 55.6237 71.5211 55.3734C71.1195 54.9916 70.8116 54.522 70.6216 54.0012C70.4315 53.4804 70.3644 52.9226 70.4255 52.3714C70.7968 48.4132 71.8577 46.2333 73.5504 45.8267L73.8084 45.8025C74.6259 45.8326 75.0984 46.1532 75.2394 46.7422C75.2804 46.9443 75.2717 47.1534 75.2141 47.3513C75.1564 47.5493 75.0515 47.7303 74.9085 47.8786C74.1305 49.2505 73.6849 50.7862 73.6077 52.362C74.3112 50.9371 74.9293 49.4715 75.4587 47.9729C76.0669 46.1848 76.8363 43.8107 77.3127 42.3374C76.4376 42.5524 75.5397 42.6603 74.6386 42.6589C73.5375 42.5459 72.3559 42.0181 72.2806 41.0737C72.2606 40.8331 72.2907 40.0144 73.4845 39.7276C73.7528 39.6498 74.0356 39.6365 74.31 39.6886C74.5844 39.7408 74.8426 39.8569 75.0638 40.0277C75.1565 40.0998 75.1786 40.1134 75.423 40.1113C75.6632 40.0914 76.7544 39.8481 77.4001 39.7119C77.6852 39.6434 77.9568 39.5971 78.1884 39.5415C78.2797 39.293 78.3717 38.969 78.4865 38.5828C81.9109 27.229 82.6564 23.6528 82.6252 22.7355C82.5275 22.6067 82.459 22.4582 82.4244 22.3003C82.3899 22.1424 82.3901 21.9788 82.4251 21.821C82.4915 21.5655 82.6308 21.335 82.8258 21.1574C83.0209 20.9799 83.2633 20.863 83.5235 20.8211C83.8341 20.7084 84.1701 20.6854 84.4932 20.7546C84.8162 20.8238 85.1134 20.9825 85.3508 21.2126C86.4026 22.3 85.807 24.6135 83.5677 32.4175C82.7262 35.3563 82.1293 37.3492 81.7442 38.5741C83.0721 38.2174 85.4783 37.564 89.791 36.4526C90.706 33.2697 95.183 18.2848 95.7975 17.7031C96.025 17.522 96.2931 17.3993 96.5787 17.3456C96.9322 17.233 97.311 17.2273 97.6677 17.3294C97.8228 17.3627 97.9694 17.4275 98.0985 17.5199C98.2276 17.6122 98.3364 17.7301 98.4181 17.8663C98.5149 18.0907 98.56 18.334 98.5499 18.5782C98.5399 18.8225 98.475 19.0613 98.3601 19.2769Z" fill="url(#paint1_linear_388_6)"/>
<path d="M126.123 15.6849C125.132 13.828 123.005 13.1309 120.279 13.7857C114.773 15.1082 109.832 21.9381 106.619 27.4848C107.494 24.2926 108.105 22.2019 108.501 20.7857C109.259 18.2067 109.346 17.9404 109.035 17.43C108.938 17.2859 108.813 17.1628 108.667 17.0681C108.522 16.9734 108.358 16.909 108.187 16.8787C107.886 16.8328 107.578 16.8474 107.282 16.9218C106.986 16.9961 106.708 17.1287 106.463 17.3117C106.199 17.5451 105.831 17.8977 100.371 39.0073C100.224 39.0237 100.073 39.0222 99.9039 39.025C99.4123 39.0429 98.9202 39.0158 98.4336 38.9441C98.2267 38.8192 97.9957 38.7396 97.7558 38.7105C97.3843 38.6714 97.0087 38.7165 96.6568 38.8424L96.639 38.8467C96.3787 38.9298 96.1441 39.0786 95.9578 39.2787C95.7714 39.4788 95.6395 39.7235 95.5748 39.9894C95.5594 40.0655 95.5527 40.143 95.5548 40.2206C95.5569 40.473 95.6452 40.717 95.8051 40.9121C95.9649 41.1072 96.1866 41.2416 96.4333 41.293C96.9118 41.7024 97.3634 42.1424 97.7851 42.6103C98.4321 43.2664 98.8461 43.6577 99.1147 43.914C99.1362 43.9427 99.1613 43.9684 99.1896 43.9904C99.0134 44.7499 98.6304 46.2197 98.2888 47.5473C97.8049 48.9256 97.4897 50.3575 97.3501 51.8117C97.3187 51.976 97.321 52.1449 97.3569 52.3083C97.3928 52.4716 97.4614 52.6259 97.5587 52.7619C97.6874 52.9223 97.8477 53.0545 98.0294 53.1504C98.2112 53.2464 98.4107 53.3039 98.6156 53.3196C98.8396 53.3404 99.0655 53.3306 99.2869 53.2904C99.4798 53.2374 99.6635 53.1552 99.8315 53.0464L99.9926 52.9322C100.432 52.5625 100.497 52.207 100.674 51.3719C101.181 49.0798 101.673 47.2817 101.959 46.2695C104.034 47.6962 109.101 50.8387 114.714 49.4906C115.721 49.2359 116.694 48.8627 117.613 48.3789C117.631 48.3747 119.96 47.0038 120.207 46.3028L120.262 46.063C120.279 45.7507 120.179 45.4433 119.982 45.201C119.784 44.9587 119.504 44.7989 119.195 44.7529C118.898 44.6867 118.589 44.696 118.297 44.7798C117.801 44.9275 117.347 45.1917 116.974 45.5506C116.601 45.8498 116.206 46.1212 115.793 46.3627C115.219 46.6669 114.611 46.9016 113.982 47.0619C109.759 48.0763 105.394 45.35 102.898 43.3451L102.998 43.0567C103.182 42.4842 103.419 41.8232 103.616 41.2286L104.56 41.0018C113.439 38.8126 122.311 29.8305 125.441 22.7561C126.768 19.7953 127.009 17.3405 126.123 15.6849ZM121.991 22.9054C119.945 26.601 117.248 29.8958 114.031 32.6308C111.326 35.0778 108.187 36.9966 104.777 38.2885C105.192 37.2642 105.742 35.943 106.205 34.9637C111.531 23.2097 117.653 16.9833 121.092 16.1572C121.426 16.0292 121.79 16.0041 122.139 16.0852C122.487 16.1663 122.804 16.3498 123.047 16.6123C123.904 17.5954 123.481 19.9996 121.991 22.9054Z" fill="url(#paint2_linear_388_6)"/>
</g>
<defs>
<linearGradient id="paint0_linear_388_6" x1="55.8637" y1="26.9741" x2="63.6899" y2="59.5569" gradientUnits="userSpaceOnUse">
<stop stop-color="#2572E4"/>
<stop offset="0.859375" stop-color="#DB2B9F"/>
</linearGradient>
<linearGradient id="paint1_linear_388_6" x1="80.9662" y1="21.0905" x2="88.718" y2="53.3638" gradientUnits="userSpaceOnUse">
<stop stop-color="#2572E4"/>
<stop offset="0.859375" stop-color="#DB2B9F"/>
</linearGradient>
<linearGradient id="paint2_linear_388_6" x1="107.693" y1="16.8087" x2="115.519" y2="49.3915" gradientUnits="userSpaceOnUse">
<stop stop-color="#2572E4"/>
<stop offset="0.859375" stop-color="#DB2B9F"/>
</linearGradient>
<clipPath id="clip0_388_6">
<rect width="89.4066" height="35.7301" fill="white" transform="matrix(0.972345 -0.233551 0.232842 0.972515 38.0535 31.252)"/>
</clipPath>
</defs>
</svg>
