<svg width="41" height="41" viewBox="0 0 41 41" fill="none" xmlns="http://www.w3.org/2000/svg">
<g clip-path="url(#clip0_97_398)">
<path d="M37.2976 0H1.32607C0.593777 0 0 0.593777 0 1.32607V31.4692C0 32.2015 0.593777 32.7953 1.32607 32.7953H37.2976C38.0299 32.7953 38.6237 32.2015 38.6237 31.4692V1.32607C38.6237 0.593777 38.0299 0 37.2976 0V0ZM32.0463 11.3138C31.704 11.6833 31.2147 11.9143 30.6718 11.9143C30.1288 11.9143 29.6395 11.6833 29.2972 11.3138C28.9868 10.9797 28.7974 10.5315 28.7974 10.0399C28.7974 9.00465 29.6366 8.16551 30.6719 8.16551C31.7072 8.16551 32.5463 9.00465 32.5463 10.0399C32.5461 10.5314 32.3568 10.9797 32.0463 11.3138ZM6.07757 10.0399C6.07757 9.00457 6.9167 8.16543 7.95199 8.16543C8.98728 8.16543 9.82641 9.00457 9.82641 10.0399C9.82641 10.5314 9.63709 10.9797 9.32662 11.3137C8.98431 11.6832 8.49504 11.9142 7.95207 11.9142C7.4091 11.9142 6.91984 11.6832 6.57753 11.3137C6.26689 10.9797 6.07757 10.5314 6.07757 10.0399ZM17.4375 10.0399C17.4375 9.00457 18.2766 8.16543 19.3119 8.16543C20.3472 8.16543 21.1863 9.00457 21.1863 10.0399C21.1863 10.5314 20.997 10.9797 20.6865 11.3137C20.3442 11.6832 19.8549 11.9142 19.312 11.9142C18.769 11.9142 18.2797 11.6832 17.9374 11.3137C17.6268 10.9797 17.4375 10.5314 17.4375 10.0399ZM32.5461 4.02668C32.5461 5.06197 31.707 5.90111 30.6717 5.90111C29.6364 5.90111 28.7973 5.06197 28.7973 4.02668C28.7973 2.99139 29.6364 2.15226 30.6717 2.15226C31.707 2.15226 32.5461 2.99147 32.5461 4.02668ZM21.1862 4.02668C21.1862 5.06197 20.3471 5.90111 19.3118 5.90111C18.2765 5.90111 17.4374 5.06197 17.4374 4.02668C17.4374 2.99139 18.2765 2.15226 19.3118 2.15226C20.3471 2.15226 21.1862 2.99147 21.1862 4.02668ZM7.95191 2.15234C8.9872 2.15234 9.82633 2.99147 9.82633 4.02676C9.82633 5.06205 8.9872 5.90119 7.95191 5.90119C6.91662 5.90119 6.07757 5.06197 6.07757 4.02668C6.07757 2.99147 6.9167 2.15234 7.95191 2.15234Z" fill="url(#paint0_linear_97_398)"/>
<path d="M36.6077 1.02173H2.01602C1.32079 1.02173 0.757324 1.5852 0.757324 2.28043V30.5151C0.757324 31.2104 1.32079 31.7738 2.01602 31.7738H36.6077C37.303 31.7738 37.8664 31.2104 37.8664 30.5151V2.28043C37.8663 1.5852 37.303 1.02173 36.6077 1.02173ZM7.95194 11.9144C7.40897 11.9144 6.9197 11.6834 6.5774 11.3139C6.26692 10.9798 6.0776 10.5316 6.0776 10.04C6.0776 9.00475 6.91673 8.16562 7.95202 8.16562C8.98731 8.16562 9.82644 9.00475 9.82644 10.04C9.82644 10.5316 9.63712 10.9799 9.32665 11.3139C8.98418 11.6834 8.49499 11.9144 7.95194 11.9144ZM19.3118 11.9144C18.7689 11.9144 18.2796 11.6834 17.9373 11.3139C17.6268 10.9798 17.4375 10.5316 17.4375 10.04C17.4375 9.00475 18.2766 8.16562 19.3119 8.16562C20.3472 8.16562 21.1863 9.00475 21.1863 10.04C21.1863 10.5316 20.997 10.9799 20.6865 11.3139C20.3441 11.6834 19.8549 11.9144 19.3118 11.9144ZM30.6718 11.9144C30.1288 11.9144 29.6396 11.6834 29.2973 11.3139C28.9868 10.9798 28.7975 10.5316 28.7975 10.04C28.7975 9.00475 29.6366 8.16562 30.6719 8.16562C31.7072 8.16562 32.5463 9.00475 32.5463 10.04C32.5463 10.5316 32.357 10.9799 32.0465 11.3139C31.704 11.6834 31.2148 11.9144 30.6718 11.9144ZM30.6718 2.15244C31.7071 2.15244 32.5462 2.99158 32.5462 4.02687C32.5462 5.06216 31.7071 5.90129 30.6718 5.90129C29.6365 5.90129 28.7974 5.06216 28.7974 4.02687C28.7974 2.99158 29.6365 2.15244 30.6718 2.15244ZM19.3118 2.15244C20.3471 2.15244 21.1863 2.99158 21.1863 4.02687C21.1863 5.06216 20.3471 5.90129 19.3118 5.90129C18.2765 5.90129 17.4374 5.06216 17.4374 4.02687C17.4375 2.99158 18.2766 2.15244 19.3118 2.15244ZM7.95194 2.15244C8.98723 2.15244 9.82636 2.99158 9.82636 4.02687C9.82636 5.06216 8.98723 5.90129 7.95194 5.90129C6.91665 5.90129 6.0776 5.06208 6.0776 4.02679C6.0776 2.99158 6.91673 2.15244 7.95194 2.15244Z" fill="url(#paint1_linear_97_398)"/>
<path d="M38.6237 6.84009V11.3136H32.0463C32.3568 10.9796 32.5461 10.5313 32.5461 10.0398C32.5461 9.00449 31.707 8.16535 30.6717 8.16535C29.6364 8.16535 28.7973 9.00449 28.7973 10.0398C28.7973 10.5313 28.9866 10.9796 29.2971 11.3136H20.6863C20.9967 10.9796 21.1861 10.5313 21.1861 10.0398C21.1861 9.00449 20.3469 8.16535 19.3116 8.16535C18.2764 8.16535 17.4372 9.00449 17.4372 10.0398C17.4372 10.5313 17.6265 10.9796 17.937 11.3136H9.32621C9.63669 10.9796 9.82601 10.5313 9.82601 10.0398C9.82601 9.00449 8.98688 8.16535 7.95159 8.16535C6.9163 8.16535 6.07717 9.00449 6.07717 10.0398C6.07717 10.5313 6.26649 10.9796 6.57696 11.3136H0V6.84009H38.6237Z" fill="url(#paint2_linear_97_398)"/>
<path d="M9.3576 11.2787C9.6499 10.9486 9.82637 10.5146 9.82637 10.0397C9.82637 9.46799 9.5704 8.95598 9.16675 8.61294V5.45337L10.5534 6.84005L14.9921 11.2787H9.3576Z" fill="url(#paint3_linear_97_398)"/>
<path d="M20.7284 11.2787C21.0208 10.9486 21.1972 10.5146 21.1972 10.0397C21.1972 9.46799 20.9412 8.95598 20.5376 8.61294V5.45337L21.9243 6.84005L26.363 11.2787H20.7284Z" fill="url(#paint4_linear_97_398)"/>
<path d="M32.0995 11.2787C32.3918 10.9486 32.5683 10.5146 32.5683 10.0397C32.5683 9.46799 32.3123 8.95598 31.9087 8.61294V5.45337L33.2954 6.84005L37.7341 11.2787H32.0995Z" fill="url(#paint5_linear_97_398)"/>
<path d="M37.2976 0H1.32607C0.593777 0 0 0.593777 0 1.32607V6.84017H38.6237V1.32607C38.6237 0.593777 38.0299 0 37.2976 0V0ZM7.95191 5.90111C6.91662 5.90111 6.07749 5.06197 6.07749 4.02668C6.07749 2.99139 6.91662 2.15226 7.95191 2.15226C8.9872 2.15226 9.82633 2.99139 9.82633 4.02668C9.82633 5.06197 8.9872 5.90111 7.95191 5.90111ZM19.3118 5.90111C18.2765 5.90111 17.4374 5.06197 17.4374 4.02668C17.4374 2.99139 18.2765 2.15226 19.3118 2.15226C20.3471 2.15226 21.1862 2.99139 21.1862 4.02668C21.1862 5.06197 20.3471 5.90111 19.3118 5.90111ZM30.6718 5.90111C29.6365 5.90111 28.7974 5.06197 28.7974 4.02668C28.7974 2.99139 29.6365 2.15226 30.6718 2.15226C31.7071 2.15226 32.5462 2.99139 32.5462 4.02668C32.5461 5.06197 31.707 5.90111 30.6718 5.90111Z" fill="url(#paint6_linear_97_398)"/>
<path d="M36.6077 1.02173H2.01602C1.32079 1.02173 0.757324 1.5852 0.757324 2.28043V6.84027H37.8663V2.28043C37.8663 1.5852 37.303 1.02173 36.6077 1.02173ZM7.95194 5.90121C6.91665 5.90121 6.07752 5.06208 6.07752 4.02679C6.07752 2.9915 6.91665 2.15236 7.95194 2.15236C8.98723 2.15236 9.82636 2.9915 9.82636 4.02679C9.82636 5.06208 8.98723 5.90121 7.95194 5.90121ZM19.3118 5.90121C18.2765 5.90121 17.4374 5.06208 17.4374 4.02679C17.4374 2.9915 18.2765 2.15236 19.3118 2.15236C20.3471 2.15236 21.1863 2.9915 21.1863 4.02679C21.1863 5.06208 20.3471 5.90121 19.3118 5.90121ZM30.6718 5.90121C29.6365 5.90121 28.7974 5.06208 28.7974 4.02679C28.7974 2.9915 29.6365 2.15236 30.6718 2.15236C31.7071 2.15236 32.5462 2.9915 32.5462 4.02679C32.5462 5.06208 31.707 5.90121 30.6718 5.90121Z" fill="url(#paint7_linear_97_398)"/>
<path d="M7.94083 10.0397C7.26384 10.0397 6.71509 9.49099 6.71509 8.81401V4.86539C6.71509 4.18841 7.26384 3.63965 7.94083 3.63965C8.61781 3.63965 9.16657 4.18841 9.16657 4.86539V8.81401C9.16657 9.49099 8.61781 10.0397 7.94083 10.0397Z" fill="url(#paint8_linear_97_398)"/>
<path d="M19.3119 10.0397C18.6349 10.0397 18.0862 9.49099 18.0862 8.81401V4.86539C18.0862 4.18841 18.6349 3.63965 19.3119 3.63965C19.9889 3.63965 20.5377 4.18841 20.5377 4.86539V8.81401C20.5377 9.49099 19.9889 10.0397 19.3119 10.0397Z" fill="url(#paint9_linear_97_398)"/>
<path d="M30.683 10.0397C30.006 10.0397 29.4573 9.49099 29.4573 8.81401V4.86539C29.4573 4.18841 30.006 3.63965 30.683 3.63965C31.36 3.63965 31.9088 4.18841 31.9088 4.86539V8.81401C31.9088 9.49099 31.36 10.0397 30.683 10.0397Z" fill="url(#paint10_linear_97_398)"/>
<path d="M10.5534 6.84005H9.16675V5.45337L10.5534 6.84005Z" fill="url(#paint11_linear_97_398)"/>
<path d="M21.9245 6.84005H20.5378V5.45337L21.9245 6.84005Z" fill="url(#paint12_linear_97_398)"/>
<path d="M33.2951 6.84005H31.9084V5.45337L33.2951 6.84005Z" fill="url(#paint13_linear_97_398)"/>
<path d="M9.5963 29.7192H4.21437C4.02826 29.7192 3.87744 29.5683 3.87744 29.3822V26.2034C3.87744 26.0173 4.02834 25.8665 4.21437 25.8665H9.59622C9.78233 25.8665 9.93314 26.0173 9.93314 26.2034V29.3822C9.93322 29.5683 9.78241 29.7192 9.5963 29.7192Z" fill="#9BA5C0"/>
<path d="M17.8672 29.7192H12.4854C12.2993 29.7192 12.1484 29.5683 12.1484 29.3822V26.2034C12.1484 26.0173 12.2993 25.8665 12.4854 25.8665H17.8672C18.0533 25.8665 18.2041 26.0173 18.2041 26.2034V29.3822C18.2041 29.5683 18.0532 29.7192 17.8672 29.7192Z" fill="#9BA5C0"/>
<path d="M20.4194 25.8662H26.4752V29.719H20.4194V25.8662Z" fill="#9BA5C0"/>
<path d="M28.6904 25.8662H34.7462V29.719H28.6904V25.8662Z" fill="#9BA5C0"/>
<path d="M9.5963 23.9706H4.21437C4.02826 23.9706 3.87744 23.8197 3.87744 23.6337V20.4548C3.87744 20.2687 4.02834 20.1179 4.21437 20.1179H9.59622C9.78233 20.1179 9.93314 20.2688 9.93314 20.4548V23.6337C9.93322 23.8197 9.78241 23.9706 9.5963 23.9706Z" fill="#9BA5C0"/>
<path d="M17.8672 23.9706H12.4854C12.2993 23.9706 12.1484 23.8197 12.1484 23.6337V20.4548C12.1484 20.2687 12.2993 20.1179 12.4854 20.1179H17.8672C18.0533 20.1179 18.2041 20.2688 18.2041 20.4548V23.6337C18.2041 23.8197 18.0532 23.9706 17.8672 23.9706Z" fill="#9BA5C0"/>
<path d="M26.1382 23.9706H20.7564C20.5703 23.9706 20.4194 23.8197 20.4194 23.6337V20.4548C20.4194 20.2687 20.5703 20.1179 20.7564 20.1179H26.1382C26.3243 20.1179 26.4751 20.2688 26.4751 20.4548V23.6337C26.4751 23.8197 26.3242 23.9706 26.1382 23.9706Z" fill="#9BA5C0"/>
<path d="M28.6904 20.1179H34.7462V23.9707H28.6904V20.1179Z" fill="#9BA5C0"/>
<path d="M17.8672 18.2223H12.4854C12.2993 18.2223 12.1484 18.0714 12.1484 17.8854V14.7066C12.1484 14.5204 12.2993 14.3696 12.4854 14.3696H17.8672C18.0533 14.3696 18.2041 14.5205 18.2041 14.7066V17.8854C18.2041 18.0715 18.0532 18.2223 17.8672 18.2223Z" fill="#9BA5C0"/>
<path d="M26.1382 18.2223H20.7564C20.5703 18.2223 20.4194 18.0714 20.4194 17.8854V14.7066C20.4194 14.5204 20.5703 14.3696 20.7564 14.3696H26.1382C26.3243 14.3696 26.4751 14.5205 26.4751 14.7066V17.8854C26.4751 18.0715 26.3242 18.2223 26.1382 18.2223Z" fill="#9BA5C0"/>
<path d="M34.4092 18.2223H29.0274C28.8412 18.2223 28.6904 18.0714 28.6904 17.8854V14.7066C28.6904 14.5204 28.8413 14.3696 29.0274 14.3696H34.4092C34.5953 14.3696 34.7461 14.5205 34.7461 14.7066V17.8854C34.7462 18.0715 34.5953 18.2223 34.4092 18.2223Z" fill="#9BA5C0"/>
<path d="M29.3182 40.9999C35.7698 40.9999 40.9999 35.7698 40.9999 29.3182C40.9999 22.8666 35.7698 17.6365 29.3182 17.6365C22.8666 17.6365 17.6365 22.8666 17.6365 29.3182C17.6365 35.7698 22.8666 40.9999 29.3182 40.9999Z" fill="url(#paint14_linear_97_398)"/>
<path d="M29.3184 40.3232C35.3962 40.3232 40.3232 35.3962 40.3232 29.3184C40.3232 23.2405 35.3962 18.3135 29.3184 18.3135C23.2405 18.3135 18.3135 23.2405 18.3135 29.3184C18.3135 35.3962 23.2405 40.3232 29.3184 40.3232Z" fill="url(#paint15_linear_97_398)"/>
<path d="M29.3183 38.6237C34.4576 38.6237 38.6237 34.4576 38.6237 29.3183C38.6237 24.1791 34.4576 20.0129 29.3183 20.0129C24.1791 20.0129 20.0129 24.1791 20.0129 29.3183C20.0129 34.4576 24.1791 38.6237 29.3183 38.6237Z" fill="url(#paint16_linear_97_398)"/>
<path d="M29.3184 40.9999C35.77 40.9999 41.0001 35.7699 41.0001 29.3182C41.0001 26.1056 39.703 23.1961 37.6043 21.0842L21.0845 37.604C23.1963 39.7028 26.1058 40.9999 29.3184 40.9999Z" fill="url(#paint17_linear_97_398)"/>
<path d="M29.3183 37.5785C33.8803 37.5785 37.5785 33.8803 37.5785 29.3183C37.5785 24.7563 33.8803 21.0581 29.3183 21.0581C24.7563 21.0581 21.0581 24.7563 21.0581 29.3183C21.0581 33.8803 24.7563 37.5785 29.3183 37.5785Z" fill="url(#paint18_linear_97_398)"/>
<path d="M29.3183 37.5785C33.8803 37.5785 37.5785 33.8803 37.5785 29.3183C37.5785 27.0505 36.6643 24.9964 35.1847 23.5037L23.5037 35.1847C24.9964 36.6643 27.0505 37.5785 29.3183 37.5785Z" fill="url(#paint19_linear_97_398)"/>
<path d="M40.7585 31.6913L33.8519 24.7847C33.6403 24.5731 33.2971 24.5731 33.0854 24.7847L29.71 28.1602C29.587 28.1186 29.4553 28.0957 29.3182 28.0957C28.6429 28.0957 28.0955 28.6432 28.0955 29.3184C28.0955 29.6957 28.2669 30.0324 28.5354 30.2566C28.5833 30.3143 28.7475 30.4761 28.7762 30.5045V34.0816C28.7762 34.2719 28.8745 34.439 29.0229 34.5357L34.3504 39.8632C37.5954 38.3119 40.0125 35.307 40.7585 31.6913Z" fill="url(#paint20_linear_97_398)"/>
<path d="M29.3182 29.3184C29.1065 29.1067 29.1065 28.7635 29.3182 28.5518L33.0853 24.7847C33.2969 24.5731 33.6401 24.5731 33.8518 24.7847C34.0635 24.9964 34.0635 25.3396 33.8518 25.5513L30.0847 29.3184C29.873 29.53 29.5299 29.53 29.3182 29.3184Z" fill="url(#paint21_linear_97_398)"/>
<path d="M29.8603 30.4024V34.0816C29.8603 34.381 29.6176 34.6237 29.3182 34.6237C29.0188 34.6237 28.7761 34.381 28.7761 34.0816V30.4024C28.7761 30.1031 29.0188 29.8604 29.3182 29.8604C29.6176 29.8604 29.8603 30.1031 29.8603 30.4024Z" fill="url(#paint22_linear_97_398)"/>
<path d="M29.3182 30.541C29.9935 30.541 30.541 29.9935 30.541 29.3182C30.541 28.6429 29.9935 28.0955 29.3182 28.0955C28.6429 28.0955 28.0955 28.6429 28.0955 29.3182C28.0955 29.9935 28.6429 30.541 29.3182 30.541Z" fill="url(#paint23_linear_97_398)"/>
<path d="M29.3183 30.3388C29.882 30.3388 30.3388 29.882 30.3388 29.3183C30.3388 28.7547 29.882 28.2979 29.3183 28.2979C28.7547 28.2979 28.2979 28.7547 28.2979 29.3183C28.2979 29.882 28.7547 30.3388 29.3183 30.3388Z" fill="url(#paint24_linear_97_398)"/>
<path d="M29.8652 28.2244C29.9477 28.3889 29.9941 28.5747 29.9941 28.7714C29.9941 29.4467 29.4466 29.9942 28.7714 29.9942C28.5747 29.9942 28.3889 29.9477 28.2244 29.8653C28.4251 30.2659 28.8395 30.541 29.3182 30.541C29.9936 30.541 30.5409 29.9936 30.5409 29.3183C30.541 28.8395 30.2658 28.4251 29.8652 28.2244Z" fill="url(#paint25_linear_97_398)"/>
<path d="M23.8834 28.9672C23.784 28.8506 23.6362 28.7764 23.4709 28.7764H22.3423C22.0429 28.7764 21.8003 29.0191 21.8003 29.3185C21.8003 29.4808 21.8721 29.6262 21.9852 29.7255L24.7525 32.5197C24.8519 32.6364 24.9997 32.7106 25.1649 32.7106H26.2936C26.593 32.7106 26.8357 32.4679 26.8357 32.1685C26.8357 32.0061 26.7639 31.8608 26.6508 31.7615L23.8834 28.9672Z" fill="url(#paint26_linear_97_398)"/>
<path d="M36.7067 28.9672C36.6072 28.8506 36.4594 28.7764 36.2942 28.7764H35.1655C34.8662 28.7764 34.6235 29.0191 34.6235 29.3185C34.6235 29.4808 34.6953 29.6262 34.8084 29.7255L37.5757 32.5197C37.6751 32.6364 37.8229 32.7106 37.9881 32.7106H39.1167C39.4161 32.7106 39.6588 32.4679 39.6588 32.1685C39.6588 32.0061 39.587 31.8608 39.4739 31.7615L36.7067 28.9672Z" fill="url(#paint27_linear_97_398)"/>
<path d="M23.471 29.8603H22.3424C22.043 29.8603 21.8003 29.6176 21.8003 29.3182C21.8003 29.0188 22.043 28.7761 22.3424 28.7761H23.471C23.7704 28.7761 24.0131 29.0188 24.0131 29.3182C24.013 29.6176 23.7704 29.8603 23.471 29.8603Z" fill="url(#paint28_linear_97_398)"/>
<path d="M36.2942 29.8603H35.1655C34.8662 29.8603 34.6235 29.6176 34.6235 29.3182C34.6235 29.0188 34.8662 28.7761 35.1655 28.7761H36.2942C36.5935 28.7761 36.8362 29.0188 36.8362 29.3182C36.8362 29.6176 36.5935 29.8603 36.2942 29.8603Z" fill="url(#paint29_linear_97_398)"/>
<path d="M28.9672 23.8834C28.8506 23.784 28.7764 23.6362 28.7764 23.4709V22.3423C28.7764 22.0429 29.0191 21.8003 29.3185 21.8003C29.4808 21.8003 29.6262 21.8721 29.7255 21.9852L32.5197 24.7525C32.6364 24.8519 32.7106 24.9997 32.7106 25.1649V26.2936C32.7106 26.593 32.4679 26.8357 32.1685 26.8357C32.0061 26.8357 31.8608 26.7639 31.7615 26.6508L28.9672 23.8834Z" fill="url(#paint30_linear_97_398)"/>
<path d="M28.9672 36.7067C28.8506 36.6072 28.7764 36.4594 28.7764 36.2942V35.1655C28.7764 34.8662 29.0191 34.6235 29.3185 34.6235C29.4808 34.6235 29.6262 34.6953 29.7255 34.8084L32.5197 37.5757C32.6364 37.6751 32.7106 37.8229 32.7106 37.9881V39.1167C32.7106 39.4161 32.4679 39.6588 32.1685 39.6588C32.0061 39.6588 31.8608 39.587 31.7615 39.4739L28.9672 36.7067Z" fill="url(#paint31_linear_97_398)"/>
<path d="M29.8603 23.471V22.3424C29.8603 22.043 29.6176 21.8003 29.3182 21.8003C29.0188 21.8003 28.7761 22.043 28.7761 22.3424V23.471C28.7761 23.7704 29.0188 24.0131 29.3182 24.0131C29.6176 24.0131 29.8603 23.7704 29.8603 23.471Z" fill="url(#paint32_linear_97_398)"/>
<path d="M29.8603 36.2942V35.1655C29.8603 34.8662 29.6176 34.6235 29.3182 34.6235C29.0188 34.6235 28.7761 34.8662 28.7761 35.1655V36.2942C28.7761 36.5935 29.0188 36.8362 29.3182 36.8362C29.6176 36.8362 29.8603 36.5935 29.8603 36.2942Z" fill="url(#paint33_linear_97_398)"/>
</g>
<defs>
<linearGradient id="paint0_linear_97_398" x1="16.6327" y1="9.61981" x2="30.9278" y2="45.7849" gradientUnits="userSpaceOnUse">
<stop stop-color="#E7E7E7"/>
<stop offset="1" stop-color="#EDD0FF"/>
</linearGradient>
<linearGradient id="paint1_linear_97_398" x1="8.81881" y1="15.8731" x2="-0.269123" y2="15.4187" gradientUnits="userSpaceOnUse">
<stop stop-color="white" stop-opacity="0"/>
<stop offset="1" stop-color="white"/>
</linearGradient>
<linearGradient id="paint2_linear_97_398" x1="19.3118" y1="10.2613" x2="19.3118" y2="5.80432" gradientUnits="userSpaceOnUse">
<stop stop-color="#F0DDFC" stop-opacity="0"/>
<stop offset="0.2085" stop-color="#DFCDF1" stop-opacity="0.209"/>
<stop offset="0.6167" stop-color="#B5A4D3" stop-opacity="0.617"/>
<stop offset="1" stop-color="#8779B3"/>
</linearGradient>
<linearGradient id="paint3_linear_97_398" x1="12.0599" y1="11.0192" x2="10.0151" y2="6.3995" gradientUnits="userSpaceOnUse">
<stop stop-color="#F0DDFC" stop-opacity="0"/>
<stop offset="0.2085" stop-color="#DFCDF1" stop-opacity="0.209"/>
<stop offset="0.6167" stop-color="#B5A4D3" stop-opacity="0.617"/>
<stop offset="1" stop-color="#8779B3"/>
</linearGradient>
<linearGradient id="paint4_linear_97_398" x1="22.9478" y1="10.1123" x2="20.6379" y2="5.60619" gradientUnits="userSpaceOnUse">
<stop stop-color="#F0DDFC" stop-opacity="0"/>
<stop offset="0.2085" stop-color="#DFCDF1" stop-opacity="0.209"/>
<stop offset="0.6167" stop-color="#B5A4D3" stop-opacity="0.617"/>
<stop offset="1" stop-color="#8779B3"/>
</linearGradient>
<linearGradient id="paint5_linear_97_398" x1="34.5808" y1="10.661" x2="32.0058" y2="5.92768" gradientUnits="userSpaceOnUse">
<stop stop-color="#F0DDFC" stop-opacity="0"/>
<stop offset="0.2085" stop-color="#DFCDF1" stop-opacity="0.209"/>
<stop offset="0.6167" stop-color="#B5A4D3" stop-opacity="0.617"/>
<stop offset="1" stop-color="#8779B3"/>
</linearGradient>
<linearGradient id="paint6_linear_97_398" x1="19.3118" y1="2.03368" x2="19.3118" y2="8.13336" gradientUnits="userSpaceOnUse">
<stop stop-color="#FF7044"/>
<stop offset="1" stop-color="#F92814"/>
</linearGradient>
<linearGradient id="paint7_linear_97_398" x1="20.8136" y1="8.50728" x2="13.1215" y2="-12.2898" gradientUnits="userSpaceOnUse">
<stop stop-color="#FF7044" stop-opacity="0"/>
<stop offset="1" stop-color="#FFA425"/>
</linearGradient>
<linearGradient id="paint8_linear_97_398" x1="6.71509" y1="6.83974" x2="9.16657" y2="6.83974" gradientUnits="userSpaceOnUse">
<stop stop-color="#FFDA45"/>
<stop offset="1" stop-color="#FFA425"/>
</linearGradient>
<linearGradient id="paint9_linear_97_398" x1="18.0862" y1="6.83974" x2="20.5377" y2="6.83974" gradientUnits="userSpaceOnUse">
<stop stop-color="#FFDA45"/>
<stop offset="1" stop-color="#FFA425"/>
</linearGradient>
<linearGradient id="paint10_linear_97_398" x1="29.4573" y1="6.83974" x2="31.9088" y2="6.83974" gradientUnits="userSpaceOnUse">
<stop stop-color="#FFDA45"/>
<stop offset="1" stop-color="#FFA425"/>
</linearGradient>
<linearGradient id="paint11_linear_97_398" x1="9.86005" y1="9.12721" x2="9.86005" y2="4.83475" gradientUnits="userSpaceOnUse">
<stop stop-color="#F92814" stop-opacity="0"/>
<stop offset="1" stop-color="#C1272D"/>
</linearGradient>
<linearGradient id="paint12_linear_97_398" x1="21.2311" y1="9.12721" x2="21.2311" y2="4.83475" gradientUnits="userSpaceOnUse">
<stop stop-color="#F92814" stop-opacity="0"/>
<stop offset="1" stop-color="#C1272D"/>
</linearGradient>
<linearGradient id="paint13_linear_97_398" x1="32.6018" y1="9.12721" x2="32.6018" y2="4.83475" gradientUnits="userSpaceOnUse">
<stop stop-color="#F92814" stop-opacity="0"/>
<stop offset="1" stop-color="#C1272D"/>
</linearGradient>
<linearGradient id="paint14_linear_97_398" x1="25.2279" y1="25.2279" x2="40.4784" y2="40.4784" gradientUnits="userSpaceOnUse">
<stop stop-color="#18CFFC"/>
<stop offset="1" stop-color="#4A98F7"/>
</linearGradient>
<linearGradient id="paint15_linear_97_398" x1="28.8121" y1="28.0588" x2="24.7711" y2="18.0043" gradientUnits="userSpaceOnUse">
<stop stop-color="#18CFFC" stop-opacity="0"/>
<stop offset="1" stop-color="#65E1DC"/>
</linearGradient>
<linearGradient id="paint16_linear_97_398" x1="32.5766" y1="32.5765" x2="20.4284" y2="20.4284" gradientUnits="userSpaceOnUse">
<stop stop-color="#18CFFC"/>
<stop offset="1" stop-color="#4A98F7"/>
</linearGradient>
<linearGradient id="paint17_linear_97_398" x1="31.3883" y1="33.4695" x2="21.8085" y2="5.85699" gradientUnits="userSpaceOnUse">
<stop stop-color="#0469BC" stop-opacity="0"/>
<stop offset="1" stop-color="#0469BC"/>
</linearGradient>
<linearGradient id="paint18_linear_97_398" x1="26.4261" y1="26.4261" x2="37.2098" y2="37.2098" gradientUnits="userSpaceOnUse">
<stop stop-color="#7E8595"/>
<stop offset="1" stop-color="#555A66"/>
</linearGradient>
<linearGradient id="paint19_linear_97_398" x1="30.4302" y1="31.2798" x2="25.8998" y2="15.5457" gradientUnits="userSpaceOnUse">
<stop stop-color="#555A66" stop-opacity="0"/>
<stop offset="1" stop-color="#555A66"/>
</linearGradient>
<linearGradient id="paint20_linear_97_398" x1="34.8425" y1="32.9003" x2="31.2894" y2="30.1253" gradientUnits="userSpaceOnUse">
<stop stop-color="#555A66" stop-opacity="0"/>
<stop offset="1" stop-color="#555A66"/>
</linearGradient>
<linearGradient id="paint21_linear_97_398" x1="31.2826" y1="26.7426" x2="32.0181" y2="27.4781" gradientUnits="userSpaceOnUse">
<stop stop-color="#FF7044"/>
<stop offset="1" stop-color="#F92814"/>
</linearGradient>
<linearGradient id="paint22_linear_97_398" x1="29.1919" y1="32.242" x2="30.3073" y2="32.242" gradientUnits="userSpaceOnUse">
<stop stop-color="#FF7044"/>
<stop offset="1" stop-color="#F92814"/>
</linearGradient>
<linearGradient id="paint23_linear_97_398" x1="28.8607" y1="28.8607" x2="30.4444" y2="30.4444" gradientUnits="userSpaceOnUse">
<stop stop-color="#FFDA45"/>
<stop offset="1" stop-color="#FFA425"/>
</linearGradient>
<linearGradient id="paint24_linear_97_398" x1="29.4401" y1="29.4401" x2="28.3335" y2="28.3335" gradientUnits="userSpaceOnUse">
<stop stop-color="#FFDA45" stop-opacity="0"/>
<stop offset="1" stop-color="#FCEE21"/>
</linearGradient>
<linearGradient id="paint25_linear_97_398" x1="29.3606" y1="29.7869" x2="31.0415" y2="26.6607" gradientUnits="userSpaceOnUse">
<stop stop-color="#FFDA45" stop-opacity="0"/>
<stop offset="1" stop-color="#B53759"/>
</linearGradient>
<linearGradient id="paint26_linear_97_398" x1="24.6989" y1="31.3726" x2="21.6766" y2="26.3822" gradientUnits="userSpaceOnUse">
<stop stop-color="#555A66" stop-opacity="0"/>
<stop offset="1" stop-color="#555A66"/>
</linearGradient>
<linearGradient id="paint27_linear_97_398" x1="37.6148" y1="31.0987" x2="34.5686" y2="28.814" gradientUnits="userSpaceOnUse">
<stop stop-color="#555A66" stop-opacity="0"/>
<stop offset="1" stop-color="#555A66"/>
</linearGradient>
<linearGradient id="paint28_linear_97_398" x1="22.9067" y1="29.192" x2="22.9067" y2="30.3074" gradientUnits="userSpaceOnUse">
<stop stop-color="#F9F7FC"/>
<stop offset="1" stop-color="#F0DDFC"/>
</linearGradient>
<linearGradient id="paint29_linear_97_398" x1="35.7299" y1="29.192" x2="35.7299" y2="30.3074" gradientUnits="userSpaceOnUse">
<stop stop-color="#F9F7FC"/>
<stop offset="1" stop-color="#F0DDFC"/>
</linearGradient>
<linearGradient id="paint30_linear_97_398" x1="31.0987" y1="24.7915" x2="28.814" y2="21.7453" gradientUnits="userSpaceOnUse">
<stop stop-color="#555A66" stop-opacity="0"/>
<stop offset="1" stop-color="#555A66"/>
</linearGradient>
<linearGradient id="paint31_linear_97_398" x1="31.0987" y1="37.6148" x2="28.814" y2="34.5686" gradientUnits="userSpaceOnUse">
<stop stop-color="#555A66" stop-opacity="0"/>
<stop offset="1" stop-color="#555A66"/>
</linearGradient>
<linearGradient id="paint32_linear_97_398" x1="29.1919" y1="22.9067" x2="30.3073" y2="22.9067" gradientUnits="userSpaceOnUse">
<stop stop-color="#F9F7FC"/>
<stop offset="1" stop-color="#F0DDFC"/>
</linearGradient>
<linearGradient id="paint33_linear_97_398" x1="29.1919" y1="35.7299" x2="30.3073" y2="35.7299" gradientUnits="userSpaceOnUse">
<stop stop-color="#F9F7FC"/>
<stop offset="1" stop-color="#F0DDFC"/>
</linearGradient>
<clipPath id="clip0_97_398">
<rect width="41" height="41" fill="white"/>
</clipPath>
</defs>
</svg>
