<svg width="15" height="16" viewBox="0 0 15 16" fill="none" xmlns="http://www.w3.org/2000/svg">
<path d="M14.2855 13.6086L11.5829 10.906C12.4019 9.83374 12.8512 8.53318 12.8513 7.16081C12.8513 5.50696 12.2072 3.95199 11.0376 2.78255C9.86814 1.61312 8.31337 0.968994 6.65932 0.968994C5.00547 0.968994 3.4505 1.61312 2.28107 2.78255C-0.133077 5.1969 -0.133077 9.12512 2.28107 11.5391C3.4505 12.7087 5.00547 13.3528 6.65932 13.3528C8.0317 13.3526 9.33225 12.9034 10.4045 12.0844L13.1071 14.7869C13.2696 14.9497 13.4831 15.0311 13.6963 15.0311C13.9095 15.0311 14.1229 14.9497 14.2855 14.7869C14.611 14.4616 14.611 13.9339 14.2855 13.6086ZM3.45945 10.3607C1.69513 8.59635 1.69533 5.72546 3.45945 3.96094C4.31415 3.10645 5.45062 2.63566 6.65932 2.63566C7.86823 2.63566 9.0045 3.10645 9.85919 3.96094C10.7139 4.81563 11.1847 5.95211 11.1847 7.16081C11.1847 8.36971 10.7139 9.50598 9.85919 10.3607C9.0045 11.2154 7.86823 11.6862 6.65932 11.6862C5.45062 11.6862 4.31415 11.2154 3.45945 10.3607Z" fill="white"/>
</svg>
