<svg width="21" height="21" viewBox="0 0 21 21" fill="none" xmlns="http://www.w3.org/2000/svg">
<path d="M11.2808 1.67999C5.97473 1.67999 1.67993 5.97406 1.67993 11.2809C1.67993 11.5666 1.91153 11.7982 2.19721 11.7982H11.2808C11.5665 11.7982 11.7981 11.5666 11.7981 11.2809V2.19727C11.7981 1.91159 11.5665 1.67999 11.2808 1.67999Z" fill="white"/>
<path d="M7.60045 13.2937C7.5097 13.128 7.33574 13.025 7.1468 13.025H4.08757C3.92292 13.025 3.76805 13.1033 3.67062 13.2361C3.57315 13.3689 3.54476 13.5401 3.59406 13.6972C4.56836 16.8003 7.37857 19.1075 10.7634 19.32V15.4426C9.4358 15.2779 8.25368 14.4863 7.60045 13.2937Z" fill="white"/>
<path d="M13.6971 3.59427C13.54 3.54501 13.3688 3.57343 13.2361 3.67083C13.1033 3.7683 13.0249 3.92313 13.0249 4.08782V7.14702C13.0249 7.33592 13.128 7.50984 13.2936 7.60063C14.4861 8.25393 15.2778 9.43602 15.4426 10.7636H19.3199C19.1069 7.37141 16.7929 4.5663 13.6971 3.59427Z" fill="white"/>
<path d="M15.4432 11.7981C15.2085 13.6982 13.6981 15.2086 11.7981 15.4432V19.3196C15.8344 19.0656 19.0651 15.8399 19.3195 11.7981H15.4432Z" fill="white"/>
</svg>
