<svg width="21" height="21" viewBox="0 0 21 21" fill="none" xmlns="http://www.w3.org/2000/svg">
<path d="M4.03846 19.3846H6.87695C5.60833 17.8485 4.84615 15.8786 4.84615 13.7308C4.84615 10.7259 6.33788 8.06944 8.62118 6.46153H0V15.3461C0 17.5765 1.80808 19.3846 4.03846 19.3846Z" fill="white"/>
<path d="M19.3846 4.84615H0V4.03846C0 1.80808 1.80808 0 4.03846 0H15.3462C17.5765 0 19.3846 1.80808 19.3846 4.03846V4.84615Z" fill="white"/>
<path d="M13.7307 21C17.7454 21 20.9999 17.7455 20.9999 13.7308C20.9999 9.71608 17.7454 6.46153 13.7307 6.46153C9.71597 6.46153 6.46143 9.71608 6.46143 13.7308C6.46143 17.7455 9.71597 21 13.7307 21ZM12.923 10.5C12.923 10.0539 13.2846 9.6923 13.7307 9.6923C14.1767 9.6923 14.5383 10.0539 14.5383 10.5V12.9231H16.1537C16.5997 12.9231 16.9614 13.2848 16.9614 13.7308C16.9614 14.1768 16.5997 14.5385 16.1537 14.5385H13.7307C13.2846 14.5385 12.923 14.1768 12.923 13.7308V10.5Z" fill="white"/>
</svg>
