<svg width="204" height="101" viewBox="0 0 204 101" fill="none" xmlns="http://www.w3.org/2000/svg">
<path d="M152.619 6.28653C153.65 6.86416 154.456 7.6685 155.038 8.70576C155.62 9.74301 155.911 10.9386 155.911 12.2958C155.911 13.6529 155.62 14.8547 155.038 15.8982C154.456 16.9417 153.65 17.7522 152.619 18.3299C151.589 18.9075 150.425 19.1963 149.124 19.1963C148.127 19.1963 147.218 19.0007 146.39 18.6125C145.563 18.2243 144.881 17.6528 144.341 16.9075V19.0472H142.01V0.149963H144.441V7.58465C144.981 6.87037 145.657 6.33311 146.466 5.96666C147.275 5.60331 148.163 5.42008 149.124 5.42008C150.425 5.42008 151.589 5.7089 152.619 6.28653ZM151.24 16.4572C151.922 16.0597 152.465 15.4976 152.862 14.7771C153.259 14.0566 153.456 13.2274 153.456 12.2958C153.456 11.3641 153.256 10.5349 152.862 9.81444C152.465 9.09395 151.925 8.53805 151.24 8.14675C150.555 7.75546 149.785 7.55981 148.924 7.55981C148.079 7.55981 147.312 7.75546 146.621 8.14675C145.929 8.53805 145.387 9.09395 144.999 9.81444C144.611 10.5349 144.417 11.3641 144.417 12.2958C144.417 13.2305 144.611 14.0566 144.999 14.7771C145.387 15.4976 145.926 16.0597 146.621 16.4572C147.312 16.8547 148.082 17.0566 148.924 17.0566C149.782 17.0566 150.555 16.8547 151.24 16.4572Z" fill="#7C7878"/>
<path d="M90.9975 2.42622V9.00688H100.416V11.3267H90.9975V18.9602H88.3148V0.0784225H101.567V2.42622H90.9975Z" fill="#7C7878"/>
<path d="M117.088 6.04889C118.134 7.02092 118.659 8.46811 118.659 10.3904V19.0208H116.218V17.1326C115.788 17.7972 115.176 18.3065 114.381 18.6574C113.584 19.0083 112.641 19.1823 111.55 19.1823C109.959 19.1823 108.683 18.7972 107.728 18.0239C106.77 17.2506 106.294 16.2351 106.294 14.9773C106.294 13.7196 106.749 12.7072 107.661 11.9432C108.574 11.1793 110.022 10.7973 112.008 10.7973H116.085V10.2849C116.085 9.16996 115.764 8.31594 115.121 7.72278C114.475 7.12962 113.53 6.83149 112.278 6.83149C111.438 6.83149 110.614 6.97123 109.81 7.25073C109.004 7.53023 108.325 7.9029 107.77 8.36873L106.697 6.42776C107.431 5.8346 108.307 5.38119 109.325 5.06443C110.344 4.75077 111.426 4.59238 112.572 4.59238C114.536 4.59238 116.043 5.07685 117.088 6.04889ZM114.527 16.527C115.242 16.086 115.761 15.4618 116.082 14.6513V12.6544H112.111C109.928 12.6544 108.837 13.3935 108.837 14.8655C108.837 15.586 109.113 16.1512 109.668 16.5643C110.223 16.9773 110.992 17.1854 111.975 17.1854C112.96 17.1885 113.812 16.968 114.527 16.527Z" fill="#7C7878"/>
<path d="M133.992 6.13365C135.023 6.71128 135.829 7.51561 136.411 8.55287C136.993 9.59012 137.284 10.7858 137.284 12.1429C137.284 13.5 136.993 14.7019 136.411 15.7453C135.829 16.7888 135.023 17.5993 133.992 18.177C132.962 18.7546 131.798 19.0434 130.497 19.0434C129.5 19.0434 128.591 18.8478 127.763 18.4596C126.936 18.0714 126.254 17.5 125.714 16.7546V18.8944H123.383V0.000183105H125.814V7.43487C126.354 6.72059 127.03 6.18333 127.839 5.81688C128.648 5.45353 129.536 5.2703 130.497 5.2703C131.795 5.2672 132.962 5.55601 133.992 6.13365ZM132.61 16.3043C133.292 15.9068 133.835 15.3447 134.232 14.6242C134.629 13.9037 134.826 13.0745 134.826 12.1429C134.826 11.2112 134.626 10.382 134.232 9.66155C133.835 8.94106 133.295 8.38517 132.61 7.99387C131.925 7.60257 131.155 7.40692 130.294 7.40692C129.449 7.40692 128.682 7.60257 127.991 7.99387C127.299 8.38517 126.757 8.94106 126.369 9.66155C125.981 10.382 125.787 11.2112 125.787 12.1429C125.787 13.0777 125.981 13.9037 126.369 14.6242C126.757 15.3447 127.296 15.9068 127.991 16.3043C128.685 16.7018 129.452 16.9037 130.294 16.9037C131.155 16.9037 131.928 16.7049 132.61 16.3043Z" fill="#7C7878"/>
<path d="M161.077 2.72161C160.783 2.4359 160.637 2.08497 160.637 1.66883C160.637 1.25268 160.783 0.898652 161.077 0.603624C161.371 0.308597 161.74 0.159531 162.183 0.159531C162.626 0.159531 162.995 0.299281 163.289 0.578781C163.583 0.85828 163.729 1.2061 163.729 1.61914C163.729 2.05081 163.583 2.41416 163.289 2.70919C162.995 3.00421 162.626 3.15328 162.183 3.15328C161.74 3.15328 161.371 3.01043 161.077 2.72161ZM161.052 5.77437H163.414V18.8798H161.052V5.77437Z" fill="#7C7878"/>
<path d="M51.093 15.3077C54.8662 22.8056 54.5491 32.4913 50.3117 39.8967C48.3263 43.3658 47.0901 44.314 44.2958 44.5407C41.9474 44.7303 37.8157 44.0365 35.6649 43.0929C33.2613 42.0476 32.2548 40.2483 31.5792 35.7569C29.9109 24.7529 35.8165 11.8155 42.9998 10.7562C46.4191 10.252 49.388 11.9218 51.093 15.3077Z" fill="#BCC2C3"/>
<path d="M47.5855 49.4946C48.6012 50.836 47.9256 54.6659 46.1976 57.2885C43.9456 60.7206 40.462 62.2609 36.7991 61.4376C31.638 60.2858 28.4715 53.232 30.8338 48.1578C31.183 47.4039 31.5093 47.1217 32.3182 46.8997C33.1133 46.6777 34.7724 46.8534 37.2587 47.4177C38.7064 47.7369 39.2073 47.8155 41.0411 48.0191C45.8575 48.5556 47.0845 48.8378 47.5855 49.4946Z" fill="#F58722"/>
<path d="M25.1304 66.7383C26.2978 72.6497 23.145 78.1401 18.0988 79.0097C13.2043 79.8423 8.06616 75.3325 7.55603 69.7264C7.3676 67.6681 7.76743 66.8956 9.32082 66.2712C10.1389 65.9428 10.7823 65.8132 13.549 65.3877C14.9369 65.1749 15.9802 64.939 18.4297 64.2822C20.1807 63.8104 20.4978 63.7318 21.0447 63.6485C21.2883 63.6115 21.5365 63.5791 21.6192 63.5653C23.4851 63.2322 24.6524 64.2915 25.1304 66.7383Z" fill="#7B7E7E"/>
<path d="M22.8411 46.6184C23.7741 53.9035 22.2804 58.6539 18.4613 60.4763C12.5419 63.3071 8.1391 62.9787 5.55626 59.5003C1.76011 54.4123 -0.376939 47.3816 0.0550677 41.4702C0.569799 34.4534 4.13155 28.9074 8.45162 28.3894C14.6789 27.6447 21.5221 36.3082 22.8411 46.6184Z" fill="#BCC2C3"/>
<g clip-path="url(#clip0_20_10)">
<path d="M113.685 39.5604C112.195 36.7122 108.941 35.6454 104.769 36.6475C96.3434 38.6713 88.7549 49.1296 83.8378 57.6178C85.177 52.7328 86.1122 49.5333 86.7452 47.3596C87.9053 43.4129 88.0111 43.012 87.5358 42.2309C87.3942 42.0038 87.2046 41.8105 86.9804 41.6648C86.7562 41.519 86.5028 41.4243 86.238 41.3873C85.7764 41.317 85.3054 41.3394 84.8524 41.4532C84.3994 41.5669 83.9736 41.7698 83.5996 42.0499C83.2222 42.4005 82.6321 42.9466 74.2762 75.2507C73.2963 75.3227 72.3115 75.2881 71.3391 75.1475C69.7502 74.1717 66.8773 75.1794 66.9064 77.1075C66.9099 77.4971 67.0487 77.8734 67.299 78.1716C67.5493 78.4699 67.8955 78.6715 68.2781 78.742C69.0023 79.3773 69.6928 80.0501 70.3467 80.7579C71.3096 81.7685 71.9431 82.3673 72.3542 82.7595C72.387 82.8034 72.4255 82.8427 72.4687 82.8764C72.2264 84.0321 71.6403 86.2813 71.1175 88.313C70.3435 90.4124 69.8602 92.6081 69.681 94.8388C69.627 95.0893 69.6251 95.3482 69.6753 95.5995C69.7256 95.8508 69.8269 96.089 69.9731 96.2994C70.1763 96.544 70.4266 96.7451 70.7092 96.8906C70.9918 97.0361 71.3007 97.1231 71.6176 97.1463C71.951 97.1833 72.2881 97.1705 72.6177 97.1082C72.9226 97.0273 73.213 96.8991 73.4783 96.7282L73.7248 96.5535C74.3695 95.9943 74.4972 95.4438 74.7679 94.1657C75.5429 90.6581 76.2698 87.9131 76.7063 86.3641C79.9092 88.5408 87.6366 93.3564 96.2259 91.2933C97.7672 90.9052 99.2568 90.3341 100.663 89.5922C100.717 89.5791 104.254 87.4878 104.631 86.4151L104.716 86.0481C104.742 85.5737 104.593 85.1063 104.297 84.7353C104 84.3643 103.578 84.1156 103.11 84.0367C102.646 83.9348 102.165 83.9512 101.709 84.0845C100.951 84.3141 100.258 84.718 99.6843 85.2639C99.1194 85.7157 98.5247 86.1287 97.9041 86.5002C97.0167 86.968 96.0773 87.3294 95.1053 87.5768C88.643 89.129 81.9635 84.957 78.1435 81.8888L78.2974 81.4475C78.6051 80.5649 78.9412 79.56 79.2697 78.6435L80.7148 78.2964C94.2744 74.9528 107.852 61.2074 112.669 50.375C114.699 45.844 115.041 42.0939 113.685 39.5604ZM81.0472 74.1442C81.6811 72.5767 82.5235 70.5549 83.2316 69.0562C91.382 51.0691 100.75 41.5407 105.986 40.2832C106.501 40.0899 107.062 40.0523 107.599 40.1749C108.135 40.2975 108.624 40.575 109.005 40.9731C110.29 42.4841 109.67 46.1566 107.362 50.6099C104.244 56.275 100.116 61.3194 95.1813 65.4928C91.0519 69.237 86.2575 72.1716 81.0472 74.1442Z" fill="url(#paint0_linear_20_10)"/>
<path d="M150.521 29.4995C150.402 29.8458 150.234 30.3483 150.05 31.0277C147.618 38.5725 143.998 50.0704 142.69 54.6015C144.391 54.1456 146.175 54.0928 147.901 54.4473C148.308 54.5555 148.667 54.7976 148.921 55.1349C149.174 55.4721 149.307 55.8849 149.298 56.3068C149.281 56.6238 149.161 56.9264 148.956 57.1687C148.578 57.5726 148.1 57.8686 147.57 58.0263C147.04 58.184 146.478 58.1977 145.941 58.0661C145.826 58.0506 145.71 58.0494 145.595 58.0627L145.567 58.0693C145.315 58.1009 144.9 58.1719 144.423 58.2286L144.369 58.2417C143.817 58.3453 143.129 58.4818 142.331 58.6444L141.459 58.854C140.675 61.8437 137.611 75.6632 137.995 78.2282C138.188 78.4028 138.338 78.6208 138.431 78.8644C138.525 79.108 138.559 79.3703 138.532 79.6298C138.43 80.0921 138.192 80.5129 137.848 80.8376C137.504 81.1623 137.07 81.3759 136.603 81.4505C136.26 81.5669 135.896 81.6099 135.535 81.5768C135.173 81.5436 134.823 81.4351 134.506 81.2581C134.19 81.0811 133.913 80.8397 133.696 80.5493C133.478 80.2589 133.323 79.926 133.241 79.5721C133.031 78.8139 132.414 76.4782 136.339 60.1126C132.746 61.0044 125.859 62.8318 123.725 63.4312C123.592 63.8386 123.451 64.3346 123.29 64.8643C119.194 77.7474 117.133 84.1922 113.109 85.3319C112.496 85.5313 111.844 85.5815 111.207 85.4782C110.571 85.3749 109.968 85.1212 109.449 84.7381C108.834 84.1539 108.363 83.4352 108.072 82.6382C107.782 81.8412 107.679 80.9876 107.772 80.1442C108.341 74.0869 109.964 70.751 112.554 70.1288L112.949 70.0918C114.2 70.1379 114.923 70.6285 115.139 71.5298C115.202 71.839 115.189 72.159 115.1 72.4619C115.012 72.7649 114.852 73.0418 114.633 73.2688C113.442 75.3682 112.76 77.7183 112.642 80.1298C113.719 77.9493 114.664 75.7064 115.475 73.4131C116.405 70.6768 117.583 67.0437 118.312 64.7891C116.973 65.1181 115.599 65.2833 114.22 65.2811C112.535 65.1082 110.726 64.3006 110.611 62.8553C110.581 62.4871 110.627 61.2342 112.454 60.7953C112.864 60.6763 113.297 60.6559 113.717 60.7357C114.137 60.8155 114.532 60.9932 114.87 61.2546C115.012 61.365 115.046 61.3857 115.42 61.3825C115.788 61.352 117.457 60.9798 118.446 60.7713C118.882 60.6665 119.297 60.5956 119.652 60.5105C119.792 60.1303 119.932 59.6344 120.108 59.0434C125.349 41.6687 126.489 36.1959 126.442 34.7922C126.292 34.5952 126.187 34.368 126.134 34.1263C126.081 33.8846 126.082 33.6343 126.135 33.3928C126.237 33.0018 126.45 32.649 126.749 32.3773C127.047 32.1056 127.418 31.9268 127.816 31.8626C128.292 31.6902 128.806 31.6549 129.3 31.7609C129.795 31.8668 130.249 32.1096 130.613 32.4618C132.222 34.1258 131.311 37.6661 127.884 49.6087C126.596 54.1059 125.683 57.1557 125.093 59.0301C127.125 58.4843 130.808 57.4843 137.407 55.7836C138.808 50.9128 145.659 27.9813 146.599 27.0911C146.947 26.814 147.358 26.6262 147.795 26.5441C148.336 26.3717 148.915 26.3631 149.461 26.5193C149.699 26.5702 149.923 26.6694 150.12 26.8107C150.318 26.9521 150.484 27.1325 150.609 27.3409C150.758 27.6843 150.827 28.0567 150.811 28.4304C150.796 28.8041 150.697 29.1695 150.521 29.4995Z" fill="url(#paint1_linear_20_10)"/>
<path d="M193.006 24.0026C191.489 21.161 188.235 20.0943 184.063 21.0963C175.637 23.1201 168.076 33.5719 163.159 42.0601C164.498 37.1751 165.433 33.9756 166.039 31.8084C167.199 27.8618 167.332 27.4543 166.857 26.6732C166.708 26.4526 166.517 26.2643 166.294 26.1194C166.071 25.9744 165.821 25.8759 165.559 25.8296C165.098 25.7593 164.627 25.7817 164.174 25.8955C163.721 26.0092 163.295 26.2121 162.921 26.4922C162.516 26.8493 161.953 27.3889 153.597 59.693C153.373 59.718 153.142 59.7158 152.883 59.7201C152.131 59.7474 151.378 59.706 150.633 59.5963C150.316 59.4051 149.963 59.2833 149.596 59.2389C149.027 59.179 148.453 59.248 147.914 59.4407L147.887 59.4472C147.489 59.5745 147.13 59.8021 146.844 60.1083C146.559 60.4146 146.357 60.789 146.258 61.1959C146.235 61.3123 146.224 61.431 146.228 61.5498C146.231 61.936 146.366 62.3094 146.611 62.608C146.855 62.9066 147.195 63.1122 147.572 63.1908C148.304 63.8173 148.995 64.4907 149.641 65.2067C150.631 66.2108 151.264 66.8095 151.675 67.2018C151.708 67.2457 151.747 67.285 151.79 67.3187C151.52 68.481 150.934 70.7301 150.411 72.7619C149.671 74.871 149.189 77.0622 148.975 79.2876C148.927 79.539 148.931 79.7975 148.985 80.0475C149.04 80.2975 149.145 80.5336 149.294 80.7417C149.491 80.9871 149.736 81.1895 150.015 81.3363C150.293 81.4831 150.598 81.5712 150.912 81.5951C151.254 81.627 151.6 81.612 151.939 81.5505C152.234 81.4695 152.515 81.3435 152.772 81.1771L153.019 81.0023C153.691 80.4366 153.791 79.8926 154.062 78.6145C154.837 75.107 155.591 72.3554 156.028 70.8064C159.203 72.9896 166.958 77.7987 175.547 75.7356C177.088 75.3458 178.577 74.7748 179.984 74.0345C180.011 74.0279 183.575 71.9301 183.952 70.8574L184.038 70.4903C184.064 70.0124 183.91 69.5421 183.608 69.1713C183.306 68.8005 182.877 68.5559 182.404 68.4855C181.95 68.3843 181.477 68.3984 181.03 68.5268C180.271 68.7526 179.577 69.157 179.006 69.7062C178.434 70.1641 177.83 70.5795 177.198 70.949C176.32 71.4145 175.39 71.7737 174.427 72.0191C167.964 73.5713 161.285 69.3993 157.465 66.3311L157.619 65.8898C157.899 65.0137 158.262 64.0022 158.564 63.0923L160.009 62.7452C173.596 59.3951 187.173 45.6497 191.963 34.8238C193.993 30.2929 194.362 26.5362 193.006 24.0026ZM186.683 35.0522C183.551 40.7077 179.425 45.7496 174.503 49.9351C170.362 53.6796 165.559 56.616 160.341 58.5931C160.975 57.0256 161.817 55.0037 162.526 53.505C170.676 35.518 180.044 25.9895 185.307 24.7255C185.818 24.5295 186.376 24.4911 186.909 24.6152C187.443 24.7393 187.927 25.0202 188.299 25.4219C189.611 26.9264 188.964 30.6055 186.683 35.0522Z" fill="url(#paint2_linear_20_10)"/>
</g>
<defs>
<linearGradient id="paint0_linear_20_10" x1="85.4884" y1="41.2785" x2="97.4648" y2="91.1401" gradientUnits="userSpaceOnUse">
<stop stop-color="#2572E4"/>
<stop offset="0.859375" stop-color="#DB2B9F"/>
</linearGradient>
<linearGradient id="paint1_linear_20_10" x1="123.903" y1="32.2749" x2="135.765" y2="81.6628" gradientUnits="userSpaceOnUse">
<stop stop-color="#2572E4"/>
<stop offset="0.859375" stop-color="#DB2B9F"/>
</linearGradient>
<linearGradient id="paint2_linear_20_10" x1="164.803" y1="25.7224" x2="176.779" y2="75.584" gradientUnits="userSpaceOnUse">
<stop stop-color="#2572E4"/>
<stop offset="0.859375" stop-color="#DB2B9F"/>
</linearGradient>
<clipPath id="clip0_20_10">
<rect width="136.819" height="54.6778" fill="white" transform="matrix(0.972345 -0.233551 0.232842 0.972515 58.2333 47.825)"/>
</clipPath>
</defs>
</svg>
