<svg width="41" height="41" viewBox="0 0 41 41" fill="none" xmlns="http://www.w3.org/2000/svg">
<path d="M21.4736 20.4847L31.0995 30.1107C33.563 27.6472 35.0867 24.2439 35.0867 20.4847H21.4736Z" fill="url(#paint0_linear_46_116)"/>
<path d="M21.4736 20.4847L31.0995 30.1107C33.563 27.6472 35.0867 24.2439 35.0867 20.4847H21.4736Z" fill="url(#paint1_linear_46_116)"/>
<path d="M21.4736 5.80126V20.4847H36.1571C36.5745 20.4847 36.9108 20.1369 36.8904 19.72C36.5042 11.8038 30.1545 5.45421 22.2384 5.06792C21.8215 5.04758 21.4736 5.38386 21.4736 5.80126Z" fill="url(#paint2_linear_46_116)"/>
<path d="M21.4736 20.4847H36.1571C36.5745 20.4847 36.9108 20.1369 36.8904 19.7199C36.7543 16.9287 35.8759 14.3329 34.4497 12.1239H21.4736V20.4847Z" fill="url(#paint3_linear_46_116)"/>
<path d="M26.6187 5.9286C25.2381 5.44054 23.7677 5.14253 22.2384 5.06792C21.8215 5.04758 21.4736 5.38386 21.4736 5.80126V20.4847H26.6187V5.9286Z" fill="url(#paint4_linear_46_116)"/>
<path d="M31.9028 34.3692C28.9263 36.6087 25.2067 37.9134 21.1803 37.8469C11.6353 37.6895 3.973 29.7745 4.11071 20.2292C4.24216 11.1155 11.3954 3.7007 20.4025 3.15251C20.9828 3.11722 21.4736 3.57722 21.4736 4.15854V20.4847L32.1175 31.1287C33.0404 32.0516 32.9458 33.5845 31.9028 34.3692Z" fill="url(#paint5_linear_46_116)"/>
<defs>
<linearGradient id="paint0_linear_46_116" x1="28.2801" y1="19.5085" x2="28.2801" y2="28.4054" gradientUnits="userSpaceOnUse">
<stop stop-color="#FEE45A"/>
<stop offset="1" stop-color="#FEA613"/>
</linearGradient>
<linearGradient id="paint1_linear_46_116" x1="28.2801" y1="24.4642" x2="28.2801" y2="20.6855" gradientUnits="userSpaceOnUse">
<stop stop-color="#DC8758" stop-opacity="0"/>
<stop offset="0.2153" stop-color="#DD8654" stop-opacity="0.215"/>
<stop offset="0.4291" stop-color="#E28448" stop-opacity="0.429"/>
<stop offset="0.6424" stop-color="#EA8034" stop-opacity="0.642"/>
<stop offset="0.8542" stop-color="#F47B18" stop-opacity="0.854"/>
<stop offset="1" stop-color="#FE7701"/>
</linearGradient>
<linearGradient id="paint2_linear_46_116" x1="24.4554" y1="11.0124" x2="29.0377" y2="17.9261" gradientUnits="userSpaceOnUse">
<stop stop-color="#99E6FC"/>
<stop offset="1" stop-color="#01C0FA"/>
</linearGradient>
<linearGradient id="paint3_linear_46_116" x1="29.1824" y1="17.7514" x2="29.1824" y2="21.4572" gradientUnits="userSpaceOnUse">
<stop stop-color="#017BAE" stop-opacity="0"/>
<stop offset="1" stop-color="#017BAE"/>
</linearGradient>
<linearGradient id="paint4_linear_46_116" x1="24.0462" y1="12.7758" x2="20.7344" y2="12.7758" gradientUnits="userSpaceOnUse">
<stop stop-color="#017BAE" stop-opacity="0"/>
<stop offset="1" stop-color="#017BAE"/>
</linearGradient>
<linearGradient id="paint5_linear_46_116" x1="27.5" y1="36.5" x2="12.5" y2="20" gradientUnits="userSpaceOnUse">
<stop stop-color="#DB2B9F"/>
<stop offset="1" stop-color="#246BD6"/>
</linearGradient>
</defs>
</svg>
